<svg width="1366" height="768" viewBox="0 0 1366 768" fill="none" xmlns="http://www.w3.org/2000/svg">
<rect x="64" y="69.0727" width="92.5818" height="199.673" fill="#B7B5B5"/>
<rect x="177.309" y="67" width="33.8545" height="80.1454" fill="#B7B5B5"/>
<rect x="75.7455" y="86.3455" width="92.5818" height="199.673" fill="#C4C4C4"/>
<rect x="93.7091" y="104.309" width="16.5818" height="14.5091" fill="#888383"/>
<rect x="135.855" y="104.309" width="16.5818" height="14.5091" fill="#888383"/>
<rect x="93.7091" y="147.145" width="16.5818" height="14.5091" fill="#888383"/>
<rect x="135.855" y="147.145" width="16.5818" height="14.5091" fill="#888383"/>
<rect x="93.7091" y="188.6" width="16.5818" height="14.5091" fill="#888383"/>
<rect x="135.855" y="188.6" width="16.5818" height="14.5091" fill="#888383"/>
<rect x="93.7091" y="231.436" width="16.5818" height="14.5091" fill="#888383"/>
<rect x="135.855" y="231.436" width="16.5818" height="14.5091" fill="#888383"/>
<rect x="183.527" y="71.8364" width="32.4727" height="82.2182" fill="#C4C4C4"/>
<rect x="189.745" y="76.6728" width="4.83636" height="4.83636" fill="#888383"/>
<rect x="206.327" y="76.6728" width="4.83636" height="4.83636" fill="#888383"/>
<rect x="189.745" y="89.8" width="4.83636" height="4.83636" fill="#888383"/>
<rect x="206.327" y="89.8" width="4.83636" height="4.83636" fill="#888383"/>
<rect x="189.745" y="102.236" width="4.83636" height="4.83636" fill="#888383"/>
<rect x="206.327" y="102.236" width="4.83636" height="4.83636" fill="#888383"/>
<rect x="189.745" y="115.364" width="4.83636" height="4.83636" fill="#888383"/>
<rect x="206.327" y="115.364" width="4.83636" height="4.83636" fill="#888383"/>
<rect x="189.745" y="126.418" width="4.83636" height="4.83636" fill="#888383"/>
<rect x="206.327" y="126.418" width="4.83636" height="4.83636" fill="#888383"/>
<rect x="189.745" y="139.545" width="4.83636" height="4.83636" fill="#888383"/>
<rect x="206.327" y="139.545" width="4.83636" height="4.83636" fill="#888383"/>
<rect x="553" y="439.297" width="63.9545" height="124.899" fill="#B7B5B5"/>
<rect x="631.273" y="438" width="23.3864" height="50.1325" fill="#B7B5B5"/>
<rect x="561.114" y="450.101" width="63.9545" height="124.899" fill="#C4C4C4"/>
<rect x="573.523" y="461.338" width="11.4545" height="9.07571" fill="#888383"/>
<rect x="602.636" y="461.338" width="11.4545" height="9.07571" fill="#888383"/>
<rect x="573.523" y="488.132" width="11.4545" height="9.07571" fill="#888383"/>
<rect x="602.636" y="488.132" width="11.4545" height="9.07571" fill="#888383"/>
<rect x="573.523" y="514.063" width="11.4545" height="9.07571" fill="#888383"/>
<rect x="602.636" y="514.063" width="11.4545" height="9.07571" fill="#888383"/>
<rect x="573.523" y="540.858" width="11.4545" height="9.07571" fill="#888383"/>
<rect x="602.636" y="540.858" width="11.4545" height="9.07571" fill="#888383"/>
<rect x="635.568" y="441.025" width="22.4318" height="51.429" fill="#C4C4C4"/>
<rect x="639.864" y="444.051" width="3.34091" height="3.02524" fill="#888383"/>
<rect x="651.318" y="444.051" width="3.34091" height="3.02524" fill="#888383"/>
<rect x="639.864" y="452.262" width="3.34091" height="3.02524" fill="#888383"/>
<rect x="651.318" y="452.262" width="3.34091" height="3.02524" fill="#888383"/>
<rect x="639.864" y="460.041" width="3.34091" height="3.02524" fill="#888383"/>
<rect x="651.318" y="460.041" width="3.34091" height="3.02524" fill="#888383"/>
<rect x="639.864" y="468.252" width="3.34091" height="3.02524" fill="#888383"/>
<rect x="651.318" y="468.252" width="3.34091" height="3.02524" fill="#888383"/>
<rect x="639.864" y="475.167" width="3.34091" height="3.02524" fill="#888383"/>
<rect x="651.318" y="475.167" width="3.34091" height="3.02524" fill="#888383"/>
<rect x="639.864" y="483.379" width="3.34091" height="3.02524" fill="#888383"/>
<rect x="651.318" y="483.379" width="3.34091" height="3.02524" fill="#888383"/>
<rect x="574" y="162.89" width="43.8545" height="85.6972" fill="#B7B5B5"/>
<rect x="627.673" y="162" width="16.0364" height="34.3975" fill="#B7B5B5"/>
<rect x="579.564" y="170.303" width="43.8545" height="85.6972" fill="#C4C4C4"/>
<rect x="588.073" y="178.013" width="7.85455" height="6.22713" fill="#888383"/>
<rect x="608.036" y="178.013" width="7.85455" height="6.22713" fill="#888383"/>
<rect x="588.073" y="196.397" width="7.85455" height="6.22713" fill="#888383"/>
<rect x="608.036" y="196.397" width="7.85455" height="6.22713" fill="#888383"/>
<rect x="588.073" y="214.189" width="7.85455" height="6.22713" fill="#888383"/>
<rect x="608.036" y="214.189" width="7.85455" height="6.22713" fill="#888383"/>
<rect x="588.073" y="232.574" width="7.85455" height="6.22713" fill="#888383"/>
<rect x="608.036" y="232.574" width="7.85455" height="6.22713" fill="#888383"/>
<rect x="630.618" y="164.076" width="15.3818" height="35.2871" fill="#C4C4C4"/>
<rect x="633.564" y="166.151" width="2.29091" height="2.07571" fill="#888383"/>
<rect x="641.418" y="166.151" width="2.29091" height="2.07571" fill="#888383"/>
<rect x="633.564" y="171.785" width="2.29091" height="2.07571" fill="#888383"/>
<rect x="641.418" y="171.785" width="2.29091" height="2.07571" fill="#888383"/>
<rect x="633.564" y="177.123" width="2.29091" height="2.07571" fill="#888383"/>
<rect x="641.418" y="177.123" width="2.29091" height="2.07571" fill="#888383"/>
<rect x="633.564" y="182.757" width="2.29091" height="2.07571" fill="#888383"/>
<rect x="641.418" y="182.757" width="2.29091" height="2.07571" fill="#888383"/>
<rect x="633.564" y="187.502" width="2.29091" height="2.07571" fill="#888383"/>
<rect x="641.418" y="187.502" width="2.29091" height="2.07571" fill="#888383"/>
<rect x="633.564" y="193.136" width="2.29091" height="2.07571" fill="#888383"/>
<rect x="641.418" y="193.136" width="2.29091" height="2.07571" fill="#888383"/>
<rect x="150" y="579.344" width="65.7818" height="129.457" fill="#B7B5B5"/>
<rect x="230.509" y="578" width="24.0545" height="51.9621" fill="#B7B5B5"/>
<rect x="158.345" y="590.543" width="65.7818" height="129.457" fill="#C4C4C4"/>
<rect x="171.109" y="602.189" width="11.7818" height="9.40694" fill="#888383"/>
<rect x="201.055" y="602.189" width="11.7818" height="9.40694" fill="#888383"/>
<rect x="171.109" y="629.962" width="11.7818" height="9.40694" fill="#888383"/>
<rect x="201.055" y="629.962" width="11.7818" height="9.40694" fill="#888383"/>
<rect x="171.109" y="656.839" width="11.7818" height="9.40694" fill="#888383"/>
<rect x="201.055" y="656.839" width="11.7818" height="9.40694" fill="#888383"/>
<rect x="171.109" y="684.612" width="11.7818" height="9.40694" fill="#888383"/>
<rect x="201.055" y="684.612" width="11.7818" height="9.40694" fill="#888383"/>
<rect x="234.927" y="581.136" width="23.0727" height="53.306" fill="#C4C4C4"/>
<rect x="239.345" y="584.271" width="3.43636" height="3.13565" fill="#888383"/>
<rect x="251.127" y="584.271" width="3.43636" height="3.13565" fill="#888383"/>
<rect x="239.345" y="592.782" width="3.43636" height="3.13565" fill="#888383"/>
<rect x="251.127" y="592.782" width="3.43636" height="3.13565" fill="#888383"/>
<rect x="239.345" y="600.845" width="3.43636" height="3.13565" fill="#888383"/>
<rect x="251.127" y="600.845" width="3.43636" height="3.13565" fill="#888383"/>
<rect x="239.345" y="609.356" width="3.43636" height="3.13565" fill="#888383"/>
<rect x="251.127" y="609.356" width="3.43636" height="3.13565" fill="#888383"/>
<rect x="239.345" y="616.524" width="3.43636" height="3.13565" fill="#888383"/>
<rect x="251.127" y="616.524" width="3.43636" height="3.13565" fill="#888383"/>
<rect x="239.345" y="625.035" width="3.43636" height="3.13565" fill="#888383"/>
<rect x="251.127" y="625.035" width="3.43636" height="3.13565" fill="#888383"/>
<rect x="683" y="386.344" width="65.7818" height="129.457" fill="#B7B5B5"/>
<rect x="763.509" y="385" width="24.0545" height="51.9621" fill="#B7B5B5"/>
<rect x="691.345" y="397.543" width="65.7818" height="129.457" fill="#C4C4C4"/>
<rect x="704.109" y="409.189" width="11.7818" height="9.40694" fill="#888383"/>
<rect x="734.055" y="409.189" width="11.7818" height="9.40694" fill="#888383"/>
<rect x="704.109" y="436.962" width="11.7818" height="9.40694" fill="#888383"/>
<rect x="734.055" y="436.962" width="11.7818" height="9.40694" fill="#888383"/>
<rect x="704.109" y="463.839" width="11.7818" height="9.40694" fill="#888383"/>
<rect x="734.055" y="463.839" width="11.7818" height="9.40694" fill="#888383"/>
<rect x="704.109" y="491.612" width="11.7818" height="9.40694" fill="#888383"/>
<rect x="734.055" y="491.612" width="11.7818" height="9.40694" fill="#888383"/>
<rect x="767.927" y="388.136" width="23.0727" height="53.306" fill="#C4C4C4"/>
<rect x="772.345" y="391.271" width="3.43636" height="3.13565" fill="#888383"/>
<rect x="784.127" y="391.271" width="3.43636" height="3.13565" fill="#888383"/>
<rect x="772.345" y="399.782" width="3.43636" height="3.13565" fill="#888383"/>
<rect x="784.127" y="399.782" width="3.43636" height="3.13565" fill="#888383"/>
<rect x="772.345" y="407.845" width="3.43636" height="3.13565" fill="#888383"/>
<rect x="784.127" y="407.845" width="3.43636" height="3.13565" fill="#888383"/>
<rect x="772.345" y="416.356" width="3.43636" height="3.13565" fill="#888383"/>
<rect x="784.127" y="416.356" width="3.43636" height="3.13565" fill="#888383"/>
<rect x="772.345" y="423.524" width="3.43636" height="3.13565" fill="#888383"/>
<rect x="784.127" y="423.524" width="3.43636" height="3.13565" fill="#888383"/>
<rect x="772.345" y="432.035" width="3.43636" height="3.13565" fill="#888383"/>
<rect x="784.127" y="432.035" width="3.43636" height="3.13565" fill="#888383"/>
<rect x="1104" y="546.164" width="56.98" height="112.136" fill="#B7B5B5"/>
<rect x="1173.74" y="545" width="20.836" height="45.0095" fill="#B7B5B5"/>
<rect x="1111.23" y="555.864" width="56.98" height="112.136" fill="#C4C4C4"/>
<rect x="1122.28" y="565.953" width="10.2054" height="8.14826" fill="#888383"/>
<rect x="1148.22" y="565.953" width="10.2054" height="8.14826" fill="#888383"/>
<rect x="1122.28" y="590.009" width="10.2054" height="8.14826" fill="#888383"/>
<rect x="1148.22" y="590.009" width="10.2054" height="8.14826" fill="#888383"/>
<rect x="1122.28" y="613.29" width="10.2054" height="8.14826" fill="#888383"/>
<rect x="1148.22" y="613.29" width="10.2054" height="8.14826" fill="#888383"/>
<rect x="1122.28" y="637.347" width="10.2054" height="8.14826" fill="#888383"/>
<rect x="1148.22" y="637.347" width="10.2054" height="8.14826" fill="#888383"/>
<rect x="1177.56" y="547.716" width="19.9855" height="46.1735" fill="#C4C4C4"/>
<rect x="1181.39" y="550.432" width="2.97657" height="2.71609" fill="#888383"/>
<rect x="1191.6" y="550.432" width="2.97657" height="2.71609" fill="#888383"/>
<rect x="1181.39" y="557.804" width="2.97657" height="2.71609" fill="#888383"/>
<rect x="1191.6" y="557.804" width="2.97657" height="2.71609" fill="#888383"/>
<rect x="1181.39" y="564.789" width="2.97657" height="2.71609" fill="#888383"/>
<rect x="1191.6" y="564.789" width="2.97657" height="2.71609" fill="#888383"/>
<rect x="1181.39" y="572.161" width="2.97657" height="2.71609" fill="#888383"/>
<rect x="1191.6" y="572.161" width="2.97657" height="2.71609" fill="#888383"/>
<rect x="1181.39" y="578.369" width="2.97657" height="2.71609" fill="#888383"/>
<rect x="1191.6" y="578.369" width="2.97657" height="2.71609" fill="#888383"/>
<rect x="1181.39" y="585.741" width="2.97657" height="2.71609" fill="#888383"/>
<rect x="1191.6" y="585.741" width="2.97657" height="2.71609" fill="#888383"/>
<rect x="1009" y="144.767" width="37.1545" height="73.8454" fill="#B7B5B5"/>
<rect x="1054.47" y="144" width="13.5864" height="29.6404" fill="#B7B5B5"/>
<rect x="1013.71" y="151.155" width="37.1545" height="73.8454" fill="#C4C4C4"/>
<rect x="1020.92" y="157.798" width="6.65455" height="5.36593" fill="#888383"/>
<rect x="1037.84" y="157.798" width="6.65455" height="5.36593" fill="#888383"/>
<rect x="1020.92" y="173.64" width="6.65455" height="5.36593" fill="#888383"/>
<rect x="1037.84" y="173.64" width="6.65455" height="5.36593" fill="#888383"/>
<rect x="1020.92" y="188.972" width="6.65455" height="5.36593" fill="#888383"/>
<rect x="1037.84" y="188.972" width="6.65455" height="5.36593" fill="#888383"/>
<rect x="1020.92" y="204.814" width="6.65455" height="5.36593" fill="#888383"/>
<rect x="1037.84" y="204.814" width="6.65455" height="5.36593" fill="#888383"/>
<rect x="1056.97" y="145.789" width="13.0318" height="30.4069" fill="#C4C4C4"/>
<rect x="1059.46" y="147.577" width="1.94091" height="1.78864" fill="#888383"/>
<rect x="1066.12" y="147.577" width="1.94091" height="1.78864" fill="#888383"/>
<rect x="1059.46" y="152.432" width="1.94091" height="1.78864" fill="#888383"/>
<rect x="1066.12" y="152.432" width="1.94091" height="1.78864" fill="#888383"/>
<rect x="1059.46" y="157.032" width="1.94091" height="1.78864" fill="#888383"/>
<rect x="1066.12" y="157.032" width="1.94091" height="1.78864" fill="#888383"/>
<rect x="1059.46" y="161.886" width="1.94091" height="1.78864" fill="#888383"/>
<rect x="1066.12" y="161.886" width="1.94091" height="1.78864" fill="#888383"/>
<rect x="1059.46" y="165.975" width="1.94091" height="1.78864" fill="#888383"/>
<rect x="1066.12" y="165.975" width="1.94091" height="1.78864" fill="#888383"/>
<rect x="1059.46" y="170.83" width="1.94091" height="1.78864" fill="#888383"/>
<rect x="1066.12" y="170.83" width="1.94091" height="1.78864" fill="#888383"/>
<rect x="1056" y="196.823" width="42.6364" height="79.3155" fill="#B7B5B5"/>
<rect x="1108.18" y="196" width="15.5909" height="31.836" fill="#B7B5B5"/>
<rect x="1061.41" y="203.685" width="42.6364" height="79.3155" fill="#C4C4C4"/>
<rect x="1069.68" y="210.82" width="7.63636" height="5.76341" fill="#888383"/>
<rect x="1089.09" y="210.82" width="7.63636" height="5.76341" fill="#888383"/>
<rect x="1069.68" y="227.836" width="7.63636" height="5.76341" fill="#888383"/>
<rect x="1089.09" y="227.836" width="7.63636" height="5.76341" fill="#888383"/>
<rect x="1069.68" y="244.303" width="7.63636" height="5.76341" fill="#888383"/>
<rect x="1089.09" y="244.303" width="7.63636" height="5.76341" fill="#888383"/>
<rect x="1069.68" y="261.319" width="7.63636" height="5.76341" fill="#888383"/>
<rect x="1089.09" y="261.319" width="7.63636" height="5.76341" fill="#888383"/>
<rect x="1111.05" y="197.921" width="14.9545" height="32.6593" fill="#C4C4C4"/>
<rect x="1113.91" y="199.842" width="2.22727" height="1.92114" fill="#888383"/>
<rect x="1121.55" y="199.842" width="2.22727" height="1.92114" fill="#888383"/>
<rect x="1113.91" y="205.057" width="2.22727" height="1.92114" fill="#888383"/>
<rect x="1121.55" y="205.057" width="2.22727" height="1.92114" fill="#888383"/>
<rect x="1113.91" y="209.997" width="2.22727" height="1.92114" fill="#888383"/>
<rect x="1121.55" y="209.997" width="2.22727" height="1.92114" fill="#888383"/>
<rect x="1113.91" y="215.211" width="2.22727" height="1.92114" fill="#888383"/>
<rect x="1121.55" y="215.211" width="2.22727" height="1.92114" fill="#888383"/>
<rect x="1113.91" y="219.603" width="2.22727" height="1.92114" fill="#888383"/>
<rect x="1121.55" y="219.603" width="2.22727" height="1.92114" fill="#888383"/>
<rect x="1113.91" y="224.817" width="2.22727" height="1.92114" fill="#888383"/>
<rect x="1121.55" y="224.817" width="2.22727" height="1.92114" fill="#888383"/>
<rect x="855" y="251.89" width="43.8545" height="85.6972" fill="#B7B5B5"/>
<rect x="908.673" y="251" width="16.0364" height="34.3975" fill="#B7B5B5"/>
<rect x="860.564" y="259.303" width="43.8545" height="85.6972" fill="#C4C4C4"/>
<rect x="869.073" y="267.013" width="7.85455" height="6.22713" fill="#888383"/>
<rect x="889.036" y="267.013" width="7.85455" height="6.22713" fill="#888383"/>
<rect x="869.073" y="285.397" width="7.85455" height="6.22713" fill="#888383"/>
<rect x="889.036" y="285.397" width="7.85455" height="6.22713" fill="#888383"/>
<rect x="869.073" y="303.189" width="7.85455" height="6.22713" fill="#888383"/>
<rect x="889.036" y="303.189" width="7.85455" height="6.22713" fill="#888383"/>
<rect x="869.073" y="321.574" width="7.85455" height="6.22713" fill="#888383"/>
<rect x="889.036" y="321.574" width="7.85455" height="6.22713" fill="#888383"/>
<rect x="911.618" y="253.076" width="15.3818" height="35.2871" fill="#C4C4C4"/>
<rect x="914.564" y="255.151" width="2.29091" height="2.07571" fill="#888383"/>
<rect x="922.418" y="255.151" width="2.29091" height="2.07571" fill="#888383"/>
<rect x="914.564" y="260.785" width="2.29091" height="2.07571" fill="#888383"/>
<rect x="922.418" y="260.785" width="2.29091" height="2.07571" fill="#888383"/>
<rect x="914.564" y="266.123" width="2.29091" height="2.07571" fill="#888383"/>
<rect x="922.418" y="266.123" width="2.29091" height="2.07571" fill="#888383"/>
<rect x="914.564" y="271.757" width="2.29091" height="2.07571" fill="#888383"/>
<rect x="922.418" y="271.757" width="2.29091" height="2.07571" fill="#888383"/>
<rect x="914.564" y="276.502" width="2.29091" height="2.07571" fill="#888383"/>
<rect x="922.418" y="276.502" width="2.29091" height="2.07571" fill="#888383"/>
<rect x="914.564" y="282.136" width="2.29091" height="2.07571" fill="#888383"/>
<rect x="922.418" y="282.136" width="2.29091" height="2.07571" fill="#888383"/>
<rect x="335" y="317.187" width="46.9" height="91.6484" fill="#B7B5B5"/>
<rect x="392.4" y="316.236" width="17.15" height="36.7862" fill="#B7B5B5"/>
<rect x="340.95" y="325.116" width="46.9" height="91.6484" fill="#C4C4C4"/>
<rect x="350.05" y="333.361" width="8.4" height="6.65957" fill="#888383"/>
<rect x="371.4" y="333.361" width="8.4" height="6.65957" fill="#888383"/>
<rect x="350.05" y="353.022" width="8.4" height="6.65957" fill="#888383"/>
<rect x="371.4" y="353.022" width="8.4" height="6.65957" fill="#888383"/>
<rect x="350.05" y="372.05" width="8.4" height="6.65957" fill="#888383"/>
<rect x="371.4" y="372.05" width="8.4" height="6.65957" fill="#888383"/>
<rect x="350.05" y="391.711" width="8.4" height="6.65957" fill="#888383"/>
<rect x="371.4" y="391.711" width="8.4" height="6.65957" fill="#888383"/>
<rect x="395.55" y="318.456" width="16.45" height="37.7376" fill="#C4C4C4"/>
<rect x="398.7" y="320.676" width="2.45" height="2.21986" fill="#888383"/>
<rect x="407.1" y="320.676" width="2.45" height="2.21986" fill="#888383"/>
<rect x="398.7" y="326.701" width="2.45" height="2.21986" fill="#888383"/>
<rect x="407.1" y="326.701" width="2.45" height="2.21986" fill="#888383"/>
<rect x="398.7" y="332.409" width="2.45" height="2.21986" fill="#888383"/>
<rect x="407.1" y="332.409" width="2.45" height="2.21986" fill="#888383"/>
<rect x="398.7" y="338.435" width="2.45" height="2.21986" fill="#888383"/>
<rect x="407.1" y="338.435" width="2.45" height="2.21986" fill="#888383"/>
<rect x="398.7" y="343.509" width="2.45" height="2.21986" fill="#888383"/>
<rect x="407.1" y="343.509" width="2.45" height="2.21986" fill="#888383"/>
<rect x="398.7" y="349.534" width="2.45" height="2.21986" fill="#888383"/>
<rect x="407.1" y="349.534" width="2.45" height="2.21986" fill="#888383"/>
</svg>
