<svg width="185" height="32" viewBox="0 0 185 32" fill="none" xmlns="http://www.w3.org/2000/svg">
<ellipse cx="22.1277" cy="19.7102" rx="9.87234" ry="7.71268" fill="#F9F9F9"/>
<ellipse rx="17.5279" ry="4.23569" transform="matrix(0.600027 -0.79998 0.884261 0.466994 14.2627 16)" fill="#F9F9F9"/>
<path d="M40.28 19.792C40.28 20.24 40.4293 20.592 40.728 20.848C41.0267 21.0933 41.3413 21.216 41.672 21.216C42.0133 21.216 42.328 21.12 42.616 20.928C42.9147 20.7253 43.1547 20.624 43.336 20.624C43.656 20.624 44.0453 20.9067 44.504 21.472C44.7493 21.7813 44.872 22.0587 44.872 22.304C44.872 22.7093 44.5787 23.088 43.992 23.44C43.384 23.8667 42.6373 24.08 41.752 24.08C40.76 24.08 39.8053 23.7227 38.888 23.008C38.4507 22.6667 38.0933 22.2133 37.816 21.648C37.5387 21.072 37.4 20.4427 37.4 19.76C37.4 19.0667 37.5387 18.4427 37.816 17.888C38.0933 17.3227 38.4507 16.8693 38.888 16.528C39.7733 15.824 40.7173 15.472 41.72 15.472C42.1253 15.472 42.52 15.5307 42.904 15.648C43.288 15.7547 43.5707 15.8613 43.752 15.968L44.008 16.128C44.2 16.256 44.3493 16.3573 44.456 16.432C44.7333 16.6453 44.872 16.8907 44.872 17.168C44.872 17.4347 44.76 17.7387 44.536 18.08C44.152 18.6667 43.784 18.96 43.432 18.96C43.2293 18.96 42.9413 18.8427 42.568 18.608C42.376 18.4267 42.0987 18.336 41.736 18.336C41.384 18.336 41.0533 18.464 40.744 18.72C40.4347 18.976 40.28 19.3333 40.28 19.792ZM51.3776 16.464C51.4416 15.8667 51.863 15.568 52.6416 15.568C53.0576 15.568 53.367 15.6 53.5696 15.664C53.7723 15.728 53.911 15.84 53.9856 16C54.071 16.16 54.119 16.304 54.1296 16.432C54.151 16.5493 54.1616 16.7307 54.1616 16.976V22.576C54.1616 22.8213 54.151 23.008 54.1296 23.136C54.119 23.2533 54.0763 23.392 54.0016 23.552C53.8523 23.8293 53.4843 23.968 52.8976 23.968C52.3216 23.968 51.9323 23.8987 51.7296 23.76C51.5376 23.6107 51.4256 23.3973 51.3936 23.12C50.999 23.6853 50.3376 23.968 49.4096 23.968C48.4923 23.968 47.639 23.5467 46.8496 22.704C46.0603 21.8613 45.6656 20.8853 45.6656 19.776C45.6656 18.656 46.0603 17.68 46.8496 16.848C47.6496 16.0053 48.5243 15.584 49.4736 15.584C49.8363 15.584 50.167 15.648 50.4656 15.776C50.7643 15.904 50.9723 16.0267 51.0896 16.144C51.207 16.2507 51.303 16.3573 51.3776 16.464ZM48.4656 19.792C48.4656 20.144 48.6043 20.464 48.8816 20.752C49.159 21.0293 49.495 21.168 49.8896 21.168C50.2843 21.168 50.6096 21.024 50.8656 20.736C51.1323 20.448 51.2656 20.1333 51.2656 19.792C51.2656 19.44 51.1376 19.1147 50.8816 18.816C50.6363 18.5173 50.3003 18.368 49.8736 18.368C49.4576 18.368 49.1163 18.5173 48.8496 18.816C48.5936 19.1147 48.4656 19.44 48.4656 19.792ZM58.1889 16.688C58.6902 15.9307 59.2929 15.552 59.9969 15.552C61.0849 15.552 61.8955 16.016 62.4289 16.944C62.5462 16.784 62.6849 16.6187 62.8449 16.448C63.0155 16.2667 63.2822 16.0747 63.6449 15.872C64.0075 15.6587 64.3809 15.552 64.7649 15.552C65.6182 15.552 66.3329 15.8827 66.9089 16.544C67.4849 17.1947 67.7729 18.2773 67.7729 19.792V22.592C67.7729 22.8373 67.7622 23.024 67.7409 23.152C67.7302 23.2693 67.6822 23.408 67.5969 23.568C67.4582 23.856 67.0475 24 66.3649 24C65.6929 24 65.2822 23.8507 65.1329 23.552C65.0582 23.392 65.0102 23.2533 64.9889 23.136C64.9782 23.008 64.9729 22.8213 64.9729 22.576V19.776C64.9729 18.848 64.6422 18.384 63.9809 18.384C63.6075 18.384 63.3515 18.5067 63.2129 18.752C63.0849 18.9973 63.0209 19.344 63.0209 19.792V22.592C63.0209 22.848 63.0102 23.0347 62.9889 23.152C62.9782 23.2693 62.9302 23.408 62.8449 23.568C62.6955 23.856 62.2795 24 61.5969 24C60.9249 24 60.5142 23.8507 60.3649 23.552C60.2902 23.392 60.2422 23.2533 60.2209 23.136C60.2102 23.008 60.2049 22.8213 60.2049 22.576V19.776C60.2049 18.848 59.8742 18.384 59.2129 18.384C58.5729 18.384 58.2529 18.848 58.2529 19.776V22.608C58.2529 22.8533 58.2422 23.04 58.2209 23.168C58.2102 23.2853 58.1622 23.424 58.0769 23.584C57.9169 23.8613 57.5009 24 56.8289 24C56.1569 24 55.7462 23.856 55.5969 23.568C55.5222 23.408 55.4742 23.2693 55.4529 23.152C55.4422 23.0347 55.4369 22.848 55.4369 22.592V16.96C55.4369 16.7147 55.4422 16.5333 55.4529 16.416C55.4742 16.288 55.5275 16.1493 55.6129 16C55.7729 15.712 56.1515 15.568 56.7489 15.568C57.3462 15.568 57.7355 15.664 57.9169 15.856C58.0982 16.048 58.1889 16.3253 58.1889 16.688ZM77.1743 18.784C77.1743 19.4347 77.0089 19.92 76.6783 20.24C76.3583 20.5493 76.0009 20.704 75.6063 20.704H71.8143C71.8143 21.0027 71.9903 21.2533 72.3423 21.456C72.6943 21.6587 73.0463 21.76 73.3983 21.76C74.0169 21.76 74.5023 21.696 74.8543 21.568L75.0303 21.504C75.2863 21.3867 75.4996 21.328 75.6703 21.328C76.0116 21.328 76.3049 21.568 76.5503 22.048C76.6889 22.336 76.7583 22.5813 76.7583 22.784C76.7583 23.7333 75.6223 24.208 73.3503 24.208C72.5609 24.208 71.8569 24.0747 71.2383 23.808C70.6303 23.5307 70.1556 23.168 69.8143 22.72C69.1423 21.856 68.8063 20.8907 68.8063 19.824C68.8063 18.48 69.2383 17.408 70.1023 16.608C70.9769 15.7973 72.0649 15.392 73.3663 15.392C74.8489 15.392 75.9369 15.9147 76.6302 16.96C76.9929 17.5147 77.1743 18.1227 77.1743 18.784ZM73.7983 19.248C74.2036 19.248 74.4063 19.0773 74.4063 18.736C74.4063 18.4907 74.3103 18.2933 74.1183 18.144C73.9369 17.9947 73.6703 17.92 73.3183 17.92C72.9769 17.92 72.6356 18.064 72.2943 18.352C71.9529 18.6293 71.7823 18.928 71.7823 19.248H73.7983ZM83.9461 15.664C84.1488 15.728 84.3141 15.84 84.4421 16C84.5808 16.1493 84.6501 16.3947 84.6501 16.736C84.6501 17.0773 84.5488 17.4507 84.3461 17.856C84.1435 18.2613 83.8501 18.464 83.4661 18.464C83.2741 18.464 83.0875 18.4213 82.9061 18.336C82.7355 18.2507 82.5061 18.208 82.2181 18.208C81.9301 18.208 81.6581 18.3093 81.4021 18.512C81.1568 18.7147 81.0341 18.96 81.0341 19.248V22.608C81.0341 22.8533 81.0235 23.04 81.0021 23.168C80.9915 23.2853 80.9435 23.424 80.8581 23.584C80.6981 23.8613 80.2821 24 79.6101 24C79.0981 24 78.7301 23.9093 78.5061 23.728C78.3355 23.5787 78.2395 23.3493 78.2181 23.04C78.2181 22.9333 78.2181 22.7787 78.2181 22.576V16.96C78.2181 16.7147 78.2235 16.5333 78.2341 16.416C78.2555 16.288 78.3035 16.1493 78.3781 16C78.5275 15.712 78.9435 15.568 79.6261 15.568C80.2661 15.568 80.6661 15.6907 80.8261 15.936C80.9435 16.1067 81.0021 16.2827 81.0021 16.464C81.0555 16.3893 81.1301 16.2987 81.2261 16.192C81.3328 16.0853 81.5515 15.9413 81.8821 15.76C82.2128 15.5787 82.5008 15.488 82.7461 15.488C83.0021 15.488 83.2155 15.504 83.3861 15.536C83.5568 15.5573 83.7435 15.6 83.9461 15.664ZM93.1743 18.784C93.1743 19.4347 93.0089 19.92 92.6783 20.24C92.3583 20.5493 92.0009 20.704 91.6063 20.704H87.8143C87.8143 21.0027 87.9903 21.2533 88.3423 21.456C88.6943 21.6587 89.0463 21.76 89.3983 21.76C90.0169 21.76 90.5023 21.696 90.8543 21.568L91.0303 21.504C91.2863 21.3867 91.4996 21.328 91.6703 21.328C92.0116 21.328 92.3049 21.568 92.5503 22.048C92.6889 22.336 92.7583 22.5813 92.7583 22.784C92.7583 23.7333 91.6223 24.208 89.3503 24.208C88.5609 24.208 87.8569 24.0747 87.2383 23.808C86.6303 23.5307 86.1556 23.168 85.8143 22.72C85.1423 21.856 84.8063 20.8907 84.8063 19.824C84.8063 18.48 85.2383 17.408 86.1023 16.608C86.9769 15.7973 88.0649 15.392 89.3663 15.392C90.8489 15.392 91.9369 15.9147 92.6302 16.96C92.9929 17.5147 93.1743 18.1227 93.1743 18.784ZM89.7983 19.248C90.2036 19.248 90.4063 19.0773 90.4063 18.736C90.4063 18.4907 90.3103 18.2933 90.1183 18.144C89.9369 17.9947 89.6703 17.92 89.3183 17.92C88.9769 17.92 88.6356 18.064 88.2943 18.352C87.9529 18.6293 87.7823 18.928 87.7823 19.248H89.7983ZM103.913 12.064C103.998 11.904 104.142 11.792 104.345 11.728C104.548 11.664 104.814 11.632 105.145 11.632C105.486 11.632 105.758 11.664 105.961 11.728C106.164 11.792 106.302 11.904 106.377 12.064C106.462 12.224 106.51 12.368 106.521 12.496C106.542 12.6133 106.553 12.7947 106.553 13.04V22.592C106.553 22.8373 106.542 23.024 106.521 23.152C106.51 23.2693 106.462 23.4027 106.377 23.552C106.217 23.84 105.764 23.984 105.017 23.984C104.281 23.984 103.87 23.7227 103.785 23.2C103.337 23.712 102.713 23.968 101.913 23.968C100.953 23.968 100.078 23.552 99.289 22.72C98.4997 21.8773 98.105 20.9013 98.105 19.792C98.105 18.672 98.4997 17.6907 99.289 16.848C100.089 16.0053 100.964 15.584 101.913 15.584C102.702 15.584 103.316 15.8507 103.753 16.384V13.024C103.753 12.7787 103.758 12.5973 103.769 12.48C103.79 12.352 103.838 12.2133 103.913 12.064ZM101.321 20.752C101.598 21.04 101.934 21.184 102.329 21.184C102.724 21.184 103.049 21.04 103.305 20.752C103.572 20.464 103.705 20.1493 103.705 19.808C103.705 19.456 103.577 19.1307 103.321 18.832C103.076 18.5333 102.74 18.384 102.313 18.384C101.886 18.384 101.545 18.5333 101.289 18.832C101.033 19.12 100.905 19.44 100.905 19.792C100.905 20.144 101.044 20.464 101.321 20.752ZM115.956 18.784C115.956 19.4347 115.79 19.92 115.46 20.24C115.14 20.5493 114.782 20.704 114.388 20.704H110.596C110.596 21.0027 110.772 21.2533 111.124 21.456C111.476 21.6587 111.828 21.76 112.18 21.76C112.798 21.76 113.284 21.696 113.636 21.568L113.812 21.504C114.068 21.3867 114.281 21.328 114.452 21.328C114.793 21.328 115.086 21.568 115.332 22.048C115.47 22.336 115.54 22.5813 115.54 22.784C115.54 23.7333 114.404 24.208 112.132 24.208C111.342 24.208 110.638 24.0747 110.02 23.808C109.412 23.5307 108.937 23.168 108.596 22.72C107.924 21.856 107.588 20.8907 107.588 19.824C107.588 18.48 108.02 17.408 108.884 16.608C109.758 15.7973 110.846 15.392 112.148 15.392C113.63 15.392 114.718 15.9147 115.411 16.96C115.774 17.5147 115.956 18.1227 115.956 18.784ZM112.58 19.248C112.985 19.248 113.188 19.0773 113.188 18.736C113.188 18.4907 113.092 18.2933 112.9 18.144C112.718 17.9947 112.452 17.92 112.1 17.92C111.758 17.92 111.417 18.064 111.076 18.352C110.734 18.6293 110.564 18.928 110.564 19.248H112.58ZM121.046 16.976C121.046 16.7307 121.052 16.5493 121.062 16.432C121.084 16.304 121.132 16.16 121.206 16C121.356 15.7227 121.772 15.584 122.454 15.584C122.966 15.584 123.329 15.6747 123.542 15.856C123.724 16.0053 123.82 16.2347 123.83 16.544C123.841 16.6507 123.846 16.8053 123.846 17.008V22.608C123.846 22.8533 123.836 23.04 123.814 23.168C123.804 23.2853 123.756 23.424 123.67 23.584C123.532 23.8613 123.121 24 122.438 24C121.766 24 121.356 23.856 121.206 23.568C121.132 23.408 121.084 23.2693 121.062 23.152C121.052 23.0347 121.046 22.848 121.046 22.592V16.976ZM123.67 14.016C123.596 14.1653 123.457 14.272 123.254 14.336C123.052 14.4 122.78 14.432 122.438 14.432C122.108 14.432 121.841 14.4 121.638 14.336C121.436 14.272 121.292 14.16 121.206 14C121.132 13.84 121.084 13.7013 121.062 13.584C121.052 13.456 121.046 13.2693 121.046 13.024C121.046 12.7787 121.052 12.5973 121.062 12.48C121.084 12.352 121.132 12.2133 121.206 12.064C121.356 11.776 121.772 11.632 122.454 11.632C123.126 11.632 123.532 11.776 123.67 12.064C123.756 12.224 123.804 12.368 123.814 12.496C123.836 12.6133 123.846 12.7947 123.846 13.04C123.846 13.2853 123.836 13.472 123.814 13.6C123.804 13.7173 123.756 13.856 123.67 14.016ZM129.812 15.568C130.879 15.568 131.764 15.9787 132.468 16.8C133.183 17.6107 133.54 18.6027 133.54 19.776V22.592C133.54 22.8373 133.53 23.024 133.508 23.152C133.498 23.2693 133.455 23.4027 133.38 23.552C133.231 23.84 132.815 23.984 132.132 23.984C131.375 23.984 130.938 23.7867 130.82 23.392C130.756 23.2107 130.724 22.9387 130.724 22.576V19.76C130.724 19.3227 130.596 18.9813 130.34 18.736C130.095 18.4907 129.759 18.368 129.332 18.368C128.916 18.368 128.575 18.496 128.308 18.752C128.052 19.008 127.924 19.344 127.924 19.76V22.592C127.924 22.8373 127.914 23.024 127.892 23.152C127.882 23.2693 127.834 23.4027 127.748 23.552C127.61 23.84 127.199 23.984 126.516 23.984C125.844 23.984 125.434 23.84 125.284 23.552C125.21 23.392 125.162 23.2533 125.14 23.136C125.13 23.008 125.124 22.8213 125.124 22.576V16.912C125.124 16.6773 125.13 16.5013 125.14 16.384C125.162 16.256 125.215 16.1173 125.3 15.968C125.45 15.7013 125.86 15.568 126.532 15.568C127.183 15.568 127.583 15.6907 127.732 15.936C127.839 16.1173 127.892 16.336 127.892 16.592C127.935 16.5173 128.031 16.4107 128.18 16.272C128.33 16.1333 128.474 16.0213 128.612 15.936C128.975 15.6907 129.375 15.568 129.812 15.568ZM137.468 19.792C137.468 20.24 137.617 20.592 137.916 20.848C138.214 21.0933 138.529 21.216 138.86 21.216C139.201 21.216 139.516 21.12 139.804 20.928C140.102 20.7253 140.342 20.624 140.524 20.624C140.844 20.624 141.233 20.9067 141.692 21.472C141.937 21.7813 142.06 22.0587 142.06 22.304C142.06 22.7093 141.766 23.088 141.18 23.44C140.572 23.8667 139.825 24.08 138.94 24.08C137.948 24.08 136.993 23.7227 136.076 23.008C135.638 22.6667 135.281 22.2133 135.004 21.648C134.726 21.072 134.588 20.4427 134.588 19.76C134.588 19.0667 134.726 18.4427 135.004 17.888C135.281 17.3227 135.638 16.8693 136.076 16.528C136.961 15.824 137.905 15.472 138.908 15.472C139.313 15.472 139.708 15.5307 140.092 15.648C140.476 15.7547 140.758 15.8613 140.94 15.968L141.196 16.128C141.388 16.256 141.537 16.3573 141.644 16.432C141.921 16.6453 142.06 16.8907 142.06 17.168C142.06 17.4347 141.948 17.7387 141.724 18.08C141.34 18.6667 140.972 18.96 140.62 18.96C140.417 18.96 140.129 18.8427 139.756 18.608C139.564 18.4267 139.286 18.336 138.924 18.336C138.572 18.336 138.241 18.464 137.932 18.72C137.622 18.976 137.468 19.3333 137.468 19.792ZM147.671 15.6C148.738 15.6 149.623 16.0053 150.327 16.816C151.042 17.6267 151.399 18.6187 151.399 19.792V22.608C151.399 22.8533 151.389 23.04 151.367 23.168C151.357 23.2853 151.309 23.424 151.223 23.584C151.085 23.8613 150.674 24 149.991 24C149.341 24 148.935 23.8613 148.775 23.584C148.69 23.424 148.637 23.28 148.615 23.152C148.605 23.024 148.599 22.832 148.599 22.576V19.776C148.599 19.3387 148.477 18.9973 148.231 18.752C147.986 18.5067 147.671 18.384 147.287 18.384C146.914 18.384 146.583 18.5013 146.295 18.736C146.007 18.96 145.842 19.216 145.799 19.504V22.608C145.799 22.8533 145.789 23.04 145.767 23.168C145.757 23.2853 145.709 23.424 145.623 23.584C145.485 23.8613 145.074 24 144.391 24C143.719 24 143.309 23.856 143.159 23.568C143.085 23.408 143.037 23.2693 143.015 23.152C143.005 23.0347 142.999 22.848 142.999 22.592V13.024C142.999 12.7787 143.005 12.5973 143.015 12.48C143.037 12.352 143.085 12.2133 143.159 12.064C143.309 11.776 143.725 11.632 144.407 11.632C145.079 11.632 145.485 11.776 145.623 12.064C145.709 12.224 145.757 12.368 145.767 12.496C145.789 12.6133 145.799 12.7947 145.799 13.04V16.576C146.333 15.9253 146.957 15.6 147.671 15.6ZM152.687 16.976C152.687 16.7307 152.692 16.5493 152.703 16.432C152.724 16.304 152.772 16.16 152.847 16C152.996 15.7227 153.412 15.584 154.095 15.584C154.607 15.584 154.97 15.6747 155.183 15.856C155.364 16.0053 155.46 16.2347 155.471 16.544C155.482 16.6507 155.487 16.8053 155.487 17.008V22.608C155.487 22.8533 155.476 23.04 155.455 23.168C155.444 23.2853 155.396 23.424 155.311 23.584C155.172 23.8613 154.762 24 154.079 24C153.407 24 152.996 23.856 152.847 23.568C152.772 23.408 152.724 23.2693 152.703 23.152C152.692 23.0347 152.687 22.848 152.687 22.592V16.976ZM155.311 14.016C155.236 14.1653 155.098 14.272 154.895 14.336C154.692 14.4 154.42 14.432 154.079 14.432C153.748 14.432 153.482 14.4 153.279 14.336C153.076 14.272 152.932 14.16 152.847 14C152.772 13.84 152.724 13.7013 152.703 13.584C152.692 13.456 152.687 13.2693 152.687 13.024C152.687 12.7787 152.692 12.5973 152.703 12.48C152.724 12.352 152.772 12.2133 152.847 12.064C152.996 11.776 153.412 11.632 154.095 11.632C154.767 11.632 155.172 11.776 155.311 12.064C155.396 12.224 155.444 12.368 155.455 12.496C155.476 12.6133 155.487 12.7947 155.487 13.04C155.487 13.2853 155.476 13.472 155.455 13.6C155.444 13.7173 155.396 13.856 155.311 14.016ZM162.493 15.664C162.696 15.728 162.861 15.84 162.989 16C163.128 16.1493 163.197 16.3947 163.197 16.736C163.197 17.0773 163.096 17.4507 162.893 17.856C162.69 18.2613 162.397 18.464 162.013 18.464C161.821 18.464 161.634 18.4213 161.453 18.336C161.282 18.2507 161.053 18.208 160.765 18.208C160.477 18.208 160.205 18.3093 159.949 18.512C159.704 18.7147 159.581 18.96 159.581 19.248V22.608C159.581 22.8533 159.57 23.04 159.549 23.168C159.538 23.2853 159.49 23.424 159.405 23.584C159.245 23.8613 158.829 24 158.157 24C157.645 24 157.277 23.9093 157.053 23.728C156.882 23.5787 156.786 23.3493 156.765 23.04C156.765 22.9333 156.765 22.7787 156.765 22.576V16.96C156.765 16.7147 156.77 16.5333 156.781 16.416C156.802 16.288 156.85 16.1493 156.925 16C157.074 15.712 157.49 15.568 158.173 15.568C158.813 15.568 159.213 15.6907 159.373 15.936C159.49 16.1067 159.549 16.2827 159.549 16.464C159.602 16.3893 159.677 16.2987 159.773 16.192C159.88 16.0853 160.098 15.9413 160.429 15.76C160.76 15.5787 161.048 15.488 161.293 15.488C161.549 15.488 161.762 15.504 161.933 15.536C162.104 15.5573 162.29 15.6 162.493 15.664ZM164.078 16.976C164.078 16.7307 164.083 16.5493 164.094 16.432C164.115 16.304 164.163 16.16 164.238 16C164.387 15.7227 164.803 15.584 165.486 15.584C165.998 15.584 166.36 15.6747 166.574 15.856C166.755 16.0053 166.851 16.2347 166.862 16.544C166.872 16.6507 166.878 16.8053 166.878 17.008V22.608C166.878 22.8533 166.867 23.04 166.846 23.168C166.835 23.2853 166.787 23.424 166.702 23.584C166.563 23.8613 166.152 24 165.47 24C164.798 24 164.387 23.856 164.238 23.568C164.163 23.408 164.115 23.2693 164.094 23.152C164.083 23.0347 164.078 22.848 164.078 22.592V16.976ZM166.702 14.016C166.627 14.1653 166.488 14.272 166.286 14.336C166.083 14.4 165.811 14.432 165.47 14.432C165.139 14.432 164.872 14.4 164.67 14.336C164.467 14.272 164.323 14.16 164.238 14C164.163 13.84 164.115 13.7013 164.094 13.584C164.083 13.456 164.078 13.2693 164.078 13.024C164.078 12.7787 164.083 12.5973 164.094 12.48C164.115 12.352 164.163 12.2133 164.238 12.064C164.387 11.776 164.803 11.632 165.486 11.632C166.158 11.632 166.563 11.776 166.702 12.064C166.787 12.224 166.835 12.368 166.846 12.496C166.867 12.6133 166.878 12.7947 166.878 13.04C166.878 13.2853 166.867 13.472 166.846 13.6C166.835 13.7173 166.787 13.856 166.702 14.016ZM173.628 16.464C173.692 15.8667 174.113 15.568 174.892 15.568C175.308 15.568 175.617 15.6 175.82 15.664C176.022 15.728 176.161 15.84 176.236 16C176.321 16.16 176.369 16.304 176.38 16.432C176.401 16.5493 176.412 16.7307 176.412 16.976V22.576C176.412 22.8213 176.401 23.008 176.38 23.136C176.369 23.2533 176.326 23.392 176.252 23.552C176.102 23.8293 175.734 23.968 175.148 23.968C174.572 23.968 174.182 23.8987 173.98 23.76C173.788 23.6107 173.676 23.3973 173.644 23.12C173.249 23.6853 172.588 23.968 171.66 23.968C170.742 23.968 169.889 23.5467 169.1 22.704C168.31 21.8613 167.916 20.8853 167.916 19.776C167.916 18.656 168.31 17.68 169.1 16.848C169.9 16.0053 170.774 15.584 171.724 15.584C172.086 15.584 172.417 15.648 172.716 15.776C173.014 15.904 173.222 16.0267 173.34 16.144C173.457 16.2507 173.553 16.3573 173.628 16.464ZM170.716 19.792C170.716 20.144 170.854 20.464 171.132 20.752C171.409 21.0293 171.745 21.168 172.14 21.168C172.534 21.168 172.86 21.024 173.116 20.736C173.382 20.448 173.516 20.1333 173.516 19.792C173.516 19.44 173.388 19.1147 173.132 18.816C172.886 18.5173 172.55 18.368 172.124 18.368C171.708 18.368 171.366 18.5173 171.1 18.816C170.844 19.1147 170.716 19.44 170.716 19.792ZM182.583 18.4L181.543 18.336V20.544C181.543 20.832 181.586 21.04 181.671 21.168C181.767 21.296 181.938 21.36 182.183 21.36C182.439 21.36 182.631 21.3707 182.759 21.392C182.898 21.4027 183.042 21.4507 183.191 21.536C183.436 21.6747 183.559 22.032 183.559 22.608C183.559 23.28 183.41 23.6907 183.111 23.84C182.951 23.9147 182.807 23.9627 182.679 23.984C182.562 23.9947 182.386 24 182.151 24C181.042 24 180.199 23.7493 179.623 23.248C179.047 22.7467 178.759 21.8987 178.759 20.704V18.336C178.556 18.368 178.338 18.384 178.103 18.384C177.868 18.384 177.671 18.2933 177.511 18.112C177.362 17.9307 177.287 17.6213 177.287 17.184C177.287 16.7467 177.314 16.432 177.367 16.24C177.42 16.0373 177.495 15.8933 177.591 15.808C177.762 15.6693 177.975 15.6 178.231 15.6L178.759 15.664V14.016C178.759 13.7707 178.764 13.5893 178.775 13.472C178.796 13.3547 178.85 13.2267 178.935 13.088C179.074 12.8213 179.484 12.688 180.167 12.688C180.892 12.688 181.324 12.8853 181.463 13.28C181.516 13.4507 181.543 13.7227 181.543 14.096V15.664C182.012 15.6213 182.364 15.6 182.599 15.6C182.844 15.6 183.026 15.6107 183.143 15.632C183.271 15.6427 183.415 15.6907 183.575 15.776C183.852 15.9147 183.991 16.3253 183.991 17.008C183.991 17.68 183.847 18.0907 183.559 18.24C183.399 18.3147 183.255 18.3627 183.127 18.384C183.01 18.3947 182.828 18.4 182.583 18.4Z" fill="white"/>
</svg>
