<svg width="82" height="110" viewBox="0 0 82 110" fill="none" xmlns="http://www.w3.org/2000/svg">
<rect y="1.03361" width="46.1681" height="99.5714" fill="#B7B5B5"/>
<rect x="56.5042" width="16.8824" height="39.9664" fill="#B7B5B5"/>
<rect x="5.85712" y="9.64707" width="46.1681" height="99.5714" fill="#C4C4C4"/>
<rect x="14.8151" y="18.605" width="8.26891" height="7.23529" fill="#888383"/>
<rect x="35.8319" y="18.605" width="8.26891" height="7.23529" fill="#888383"/>
<rect x="14.8151" y="39.9664" width="8.26891" height="7.23529" fill="#888383"/>
<rect x="35.8319" y="39.9664" width="8.26891" height="7.23529" fill="#888383"/>
<rect x="14.8151" y="60.6386" width="8.26891" height="7.23529" fill="#888383"/>
<rect x="35.8319" y="60.6386" width="8.26891" height="7.23529" fill="#888383"/>
<rect x="14.8151" y="82" width="8.26891" height="7.23529" fill="#888383"/>
<rect x="35.8319" y="82" width="8.26891" height="7.23529" fill="#888383"/>
<ellipse cx="70.6302" cy="70.458" rx="11.3697" ry="18.0882" fill="#C4C4C4"/>
<rect x="68.563" y="86.8235" width="3.78992" height="22.395" fill="#C4C4C4"/>
<rect x="65.8067" y="59.2605" width="2.7563" height="7.92437" fill="#838282"/>
<rect x="65.8067" y="59.2605" width="2.7563" height="7.92437" fill="#838282"/>
<rect x="65.8067" y="78.5546" width="2.7563" height="3.78992" fill="#838282"/>
<rect x="72.353" y="73.3865" width="6.20168" height="3.10084" fill="#838282"/>
<rect x="59.605" y="2.41177" width="16.1933" height="41" fill="#C4C4C4"/>
<rect x="62.7059" y="4.82353" width="2.41176" height="2.41176" fill="#888383"/>
<rect x="70.9748" y="4.82353" width="2.41176" height="2.41176" fill="#888383"/>
<rect x="62.7059" y="11.3698" width="2.41176" height="2.41176" fill="#888383"/>
<rect x="70.9748" y="11.3698" width="2.41176" height="2.41176" fill="#888383"/>
<rect x="62.7059" y="17.5714" width="2.41176" height="2.41176" fill="#888383"/>
<rect x="70.9748" y="17.5714" width="2.41176" height="2.41176" fill="#888383"/>
<rect x="62.7059" y="24.1177" width="2.41176" height="2.41176" fill="#888383"/>
<rect x="70.9748" y="24.1177" width="2.41176" height="2.41176" fill="#888383"/>
<rect x="62.7059" y="29.6302" width="2.41176" height="2.41176" fill="#888383"/>
<rect x="70.9748" y="29.6302" width="2.41176" height="2.41176" fill="#888383"/>
<rect x="62.7059" y="36.1765" width="2.41176" height="2.41176" fill="#888383"/>
<rect x="70.9748" y="36.1765" width="2.41176" height="2.41176" fill="#888383"/>
</svg>
