<svg width="87" height="124" viewBox="0 0 87 124" fill="none" xmlns="http://www.w3.org/2000/svg">
<rect y="1.17349" width="52.4164" height="113.047" fill="#B7B5B5"/>
<rect x="64.1514" width="19.1672" height="45.3754" fill="#B7B5B5"/>
<rect x="6.64984" y="10.9527" width="52.4164" height="113.047" fill="#C4C4C4"/>
<rect x="16.8202" y="21.123" width="9.38801" height="8.21451" fill="#888383"/>
<rect x="40.6814" y="21.123" width="9.38801" height="8.21451" fill="#888383"/>
<rect x="16.8202" y="45.3754" width="9.38801" height="8.21451" fill="#888383"/>
<rect x="40.6814" y="45.3754" width="9.38801" height="8.21451" fill="#888383"/>
<rect x="16.8202" y="68.8454" width="9.38801" height="8.21451" fill="#888383"/>
<rect x="40.6814" y="68.8454" width="9.38801" height="8.21451" fill="#888383"/>
<rect x="16.8202" y="93.0978" width="9.38801" height="8.21451" fill="#888383"/>
<rect x="40.6814" y="93.0978" width="9.38801" height="8.21451" fill="#888383"/>
<rect x="67.6719" y="2.73816" width="18.3849" height="46.5489" fill="#C4C4C4"/>
<rect x="71.1924" y="5.47635" width="2.73817" height="2.73817" fill="#888383"/>
<rect x="80.5804" y="5.47635" width="2.73817" height="2.73817" fill="#888383"/>
<rect x="71.1924" y="12.9085" width="2.73817" height="2.73817" fill="#888383"/>
<rect x="80.5804" y="12.9085" width="2.73817" height="2.73817" fill="#888383"/>
<rect x="71.1924" y="19.9495" width="2.73817" height="2.73817" fill="#888383"/>
<rect x="80.5804" y="19.9495" width="2.73817" height="2.73817" fill="#888383"/>
<rect x="71.1924" y="27.3817" width="2.73817" height="2.73817" fill="#888383"/>
<rect x="80.5804" y="27.3817" width="2.73817" height="2.73817" fill="#888383"/>
<rect x="71.1924" y="33.6404" width="2.73817" height="2.73817" fill="#888383"/>
<rect x="80.5804" y="33.6404" width="2.73817" height="2.73817" fill="#888383"/>
<rect x="71.1924" y="41.0725" width="2.73817" height="2.73817" fill="#888383"/>
<rect x="80.5804" y="41.0725" width="2.73817" height="2.73817" fill="#888383"/>
</svg>
