<svg width="184" height="32" viewBox="0 0 184 32" fill="none" xmlns="http://www.w3.org/2000/svg">
<ellipse cx="19.5001" cy="19.5" rx="8.5" ry="7.5" fill="#442450"/>
<ellipse rx="17.5279" ry="3.45528" transform="matrix(0.600027 -0.79998 0.884261 0.466994 13.9528 16.3645)" fill="#442450"/>
<path d="M39.28 19.792C39.28 20.24 39.4293 20.592 39.728 20.848C40.0267 21.0933 40.3413 21.216 40.672 21.216C41.0133 21.216 41.328 21.12 41.616 20.928C41.9147 20.7253 42.1547 20.624 42.336 20.624C42.656 20.624 43.0453 20.9067 43.504 21.472C43.7493 21.7813 43.872 22.0587 43.872 22.304C43.872 22.7093 43.5787 23.088 42.992 23.44C42.384 23.8667 41.6373 24.08 40.752 24.08C39.76 24.08 38.8053 23.7227 37.888 23.008C37.4507 22.6667 37.0933 22.2133 36.816 21.648C36.5387 21.072 36.4 20.4427 36.4 19.76C36.4 19.0667 36.5387 18.4427 36.816 17.888C37.0933 17.3227 37.4507 16.8693 37.888 16.528C38.7733 15.824 39.7173 15.472 40.72 15.472C41.1253 15.472 41.52 15.5307 41.904 15.648C42.288 15.7547 42.5707 15.8613 42.752 15.968L43.008 16.128C43.2 16.256 43.3493 16.3573 43.456 16.432C43.7333 16.6453 43.872 16.8907 43.872 17.168C43.872 17.4347 43.76 17.7387 43.536 18.08C43.152 18.6667 42.784 18.96 42.432 18.96C42.2293 18.96 41.9413 18.8427 41.568 18.608C41.376 18.4267 41.0987 18.336 40.736 18.336C40.384 18.336 40.0533 18.464 39.744 18.72C39.4347 18.976 39.28 19.3333 39.28 19.792ZM50.3776 16.464C50.4416 15.8667 50.863 15.568 51.6416 15.568C52.0576 15.568 52.367 15.6 52.5696 15.664C52.7723 15.728 52.911 15.84 52.9856 16C53.071 16.16 53.119 16.304 53.1296 16.432C53.151 16.5493 53.1616 16.7307 53.1616 16.976V22.576C53.1616 22.8213 53.151 23.008 53.1296 23.136C53.119 23.2533 53.0763 23.392 53.0016 23.552C52.8523 23.8293 52.4843 23.968 51.8976 23.968C51.3216 23.968 50.9323 23.8987 50.7296 23.76C50.5376 23.6107 50.4256 23.3973 50.3936 23.12C49.999 23.6853 49.3376 23.968 48.4096 23.968C47.4923 23.968 46.639 23.5467 45.8496 22.704C45.0603 21.8613 44.6656 20.8853 44.6656 19.776C44.6656 18.656 45.0603 17.68 45.8496 16.848C46.6496 16.0053 47.5243 15.584 48.4736 15.584C48.8363 15.584 49.167 15.648 49.4656 15.776C49.7643 15.904 49.9723 16.0267 50.0896 16.144C50.207 16.2507 50.303 16.3573 50.3776 16.464ZM47.4656 19.792C47.4656 20.144 47.6043 20.464 47.8816 20.752C48.159 21.0293 48.495 21.168 48.8896 21.168C49.2843 21.168 49.6096 21.024 49.8656 20.736C50.1323 20.448 50.2656 20.1333 50.2656 19.792C50.2656 19.44 50.1376 19.1147 49.8816 18.816C49.6363 18.5173 49.3003 18.368 48.8736 18.368C48.4576 18.368 48.1163 18.5173 47.8496 18.816C47.5936 19.1147 47.4656 19.44 47.4656 19.792ZM57.1889 16.688C57.6902 15.9307 58.2929 15.552 58.9969 15.552C60.0849 15.552 60.8955 16.016 61.4289 16.944C61.5462 16.784 61.6849 16.6187 61.8449 16.448C62.0155 16.2667 62.2822 16.0747 62.6449 15.872C63.0075 15.6587 63.3809 15.552 63.7649 15.552C64.6182 15.552 65.3329 15.8827 65.9089 16.544C66.4849 17.1947 66.7729 18.2773 66.7729 19.792V22.592C66.7729 22.8373 66.7622 23.024 66.7409 23.152C66.7302 23.2693 66.6822 23.408 66.5969 23.568C66.4582 23.856 66.0475 24 65.3649 24C64.6929 24 64.2822 23.8507 64.1329 23.552C64.0582 23.392 64.0102 23.2533 63.9889 23.136C63.9782 23.008 63.9729 22.8213 63.9729 22.576V19.776C63.9729 18.848 63.6422 18.384 62.9809 18.384C62.6075 18.384 62.3515 18.5067 62.2129 18.752C62.0849 18.9973 62.0209 19.344 62.0209 19.792V22.592C62.0209 22.848 62.0102 23.0347 61.9889 23.152C61.9782 23.2693 61.9302 23.408 61.8449 23.568C61.6955 23.856 61.2795 24 60.5969 24C59.9249 24 59.5142 23.8507 59.3649 23.552C59.2902 23.392 59.2422 23.2533 59.2209 23.136C59.2102 23.008 59.2049 22.8213 59.2049 22.576V19.776C59.2049 18.848 58.8742 18.384 58.2129 18.384C57.5729 18.384 57.2529 18.848 57.2529 19.776V22.608C57.2529 22.8533 57.2422 23.04 57.2209 23.168C57.2102 23.2853 57.1622 23.424 57.0769 23.584C56.9169 23.8613 56.5009 24 55.8289 24C55.1569 24 54.7462 23.856 54.5969 23.568C54.5222 23.408 54.4742 23.2693 54.4529 23.152C54.4422 23.0347 54.4369 22.848 54.4369 22.592V16.96C54.4369 16.7147 54.4422 16.5333 54.4529 16.416C54.4742 16.288 54.5275 16.1493 54.6129 16C54.7729 15.712 55.1515 15.568 55.7489 15.568C56.3462 15.568 56.7355 15.664 56.9169 15.856C57.0982 16.048 57.1889 16.3253 57.1889 16.688ZM76.1743 18.784C76.1743 19.4347 76.0089 19.92 75.6783 20.24C75.3583 20.5493 75.0009 20.704 74.6063 20.704H70.8143C70.8143 21.0027 70.9903 21.2533 71.3423 21.456C71.6943 21.6587 72.0463 21.76 72.3983 21.76C73.0169 21.76 73.5023 21.696 73.8543 21.568L74.0303 21.504C74.2863 21.3867 74.4996 21.328 74.6703 21.328C75.0116 21.328 75.3049 21.568 75.5503 22.048C75.6889 22.336 75.7583 22.5813 75.7583 22.784C75.7583 23.7333 74.6223 24.208 72.3503 24.208C71.5609 24.208 70.8569 24.0747 70.2383 23.808C69.6303 23.5307 69.1556 23.168 68.8143 22.72C68.1423 21.856 67.8063 20.8907 67.8063 19.824C67.8063 18.48 68.2383 17.408 69.1023 16.608C69.9769 15.7973 71.0649 15.392 72.3663 15.392C73.8489 15.392 74.9369 15.9147 75.6302 16.96C75.9929 17.5147 76.1743 18.1227 76.1743 18.784ZM72.7983 19.248C73.2036 19.248 73.4063 19.0773 73.4063 18.736C73.4063 18.4907 73.3103 18.2933 73.1183 18.144C72.9369 17.9947 72.6703 17.92 72.3183 17.92C71.9769 17.92 71.6356 18.064 71.2943 18.352C70.9529 18.6293 70.7823 18.928 70.7823 19.248H72.7983ZM82.9461 15.664C83.1488 15.728 83.3141 15.84 83.4421 16C83.5808 16.1493 83.6501 16.3947 83.6501 16.736C83.6501 17.0773 83.5488 17.4507 83.3461 17.856C83.1435 18.2613 82.8501 18.464 82.4661 18.464C82.2741 18.464 82.0875 18.4213 81.9061 18.336C81.7355 18.2507 81.5061 18.208 81.2181 18.208C80.9301 18.208 80.6581 18.3093 80.4021 18.512C80.1568 18.7147 80.0341 18.96 80.0341 19.248V22.608C80.0341 22.8533 80.0235 23.04 80.0021 23.168C79.9915 23.2853 79.9435 23.424 79.8581 23.584C79.6981 23.8613 79.2821 24 78.6101 24C78.0981 24 77.7301 23.9093 77.5061 23.728C77.3355 23.5787 77.2395 23.3493 77.2181 23.04C77.2181 22.9333 77.2181 22.7787 77.2181 22.576V16.96C77.2181 16.7147 77.2235 16.5333 77.2341 16.416C77.2555 16.288 77.3035 16.1493 77.3781 16C77.5275 15.712 77.9435 15.568 78.6261 15.568C79.2661 15.568 79.6661 15.6907 79.8261 15.936C79.9435 16.1067 80.0021 16.2827 80.0021 16.464C80.0555 16.3893 80.1301 16.2987 80.2261 16.192C80.3328 16.0853 80.5515 15.9413 80.8821 15.76C81.2128 15.5787 81.5008 15.488 81.7461 15.488C82.0021 15.488 82.2155 15.504 82.3861 15.536C82.5568 15.5573 82.7435 15.6 82.9461 15.664ZM92.1743 18.784C92.1743 19.4347 92.0089 19.92 91.6783 20.24C91.3583 20.5493 91.0009 20.704 90.6063 20.704H86.8143C86.8143 21.0027 86.9903 21.2533 87.3423 21.456C87.6943 21.6587 88.0463 21.76 88.3983 21.76C89.0169 21.76 89.5023 21.696 89.8543 21.568L90.0303 21.504C90.2863 21.3867 90.4996 21.328 90.6703 21.328C91.0116 21.328 91.3049 21.568 91.5503 22.048C91.6889 22.336 91.7583 22.5813 91.7583 22.784C91.7583 23.7333 90.6223 24.208 88.3503 24.208C87.5609 24.208 86.8569 24.0747 86.2383 23.808C85.6303 23.5307 85.1556 23.168 84.8143 22.72C84.1423 21.856 83.8063 20.8907 83.8063 19.824C83.8063 18.48 84.2383 17.408 85.1023 16.608C85.9769 15.7973 87.0649 15.392 88.3663 15.392C89.8489 15.392 90.9369 15.9147 91.6302 16.96C91.9929 17.5147 92.1743 18.1227 92.1743 18.784ZM88.7983 19.248C89.2036 19.248 89.4063 19.0773 89.4063 18.736C89.4063 18.4907 89.3103 18.2933 89.1183 18.144C88.9369 17.9947 88.6703 17.92 88.3183 17.92C87.9769 17.92 87.6356 18.064 87.2943 18.352C86.9529 18.6293 86.7823 18.928 86.7823 19.248H88.7983ZM102.913 12.064C102.998 11.904 103.142 11.792 103.345 11.728C103.548 11.664 103.814 11.632 104.145 11.632C104.486 11.632 104.758 11.664 104.961 11.728C105.164 11.792 105.302 11.904 105.377 12.064C105.462 12.224 105.51 12.368 105.521 12.496C105.542 12.6133 105.553 12.7947 105.553 13.04V22.592C105.553 22.8373 105.542 23.024 105.521 23.152C105.51 23.2693 105.462 23.4027 105.377 23.552C105.217 23.84 104.764 23.984 104.017 23.984C103.281 23.984 102.87 23.7227 102.785 23.2C102.337 23.712 101.713 23.968 100.913 23.968C99.953 23.968 99.0783 23.552 98.289 22.72C97.4997 21.8773 97.105 20.9013 97.105 19.792C97.105 18.672 97.4997 17.6907 98.289 16.848C99.089 16.0053 99.9637 15.584 100.913 15.584C101.702 15.584 102.316 15.8507 102.753 16.384V13.024C102.753 12.7787 102.758 12.5973 102.769 12.48C102.79 12.352 102.838 12.2133 102.913 12.064ZM100.321 20.752C100.598 21.04 100.934 21.184 101.329 21.184C101.724 21.184 102.049 21.04 102.305 20.752C102.572 20.464 102.705 20.1493 102.705 19.808C102.705 19.456 102.577 19.1307 102.321 18.832C102.076 18.5333 101.74 18.384 101.313 18.384C100.886 18.384 100.545 18.5333 100.289 18.832C100.033 19.12 99.905 19.44 99.905 19.792C99.905 20.144 100.044 20.464 100.321 20.752ZM114.956 18.784C114.956 19.4347 114.79 19.92 114.46 20.24C114.14 20.5493 113.782 20.704 113.388 20.704H109.596C109.596 21.0027 109.772 21.2533 110.124 21.456C110.476 21.6587 110.828 21.76 111.18 21.76C111.798 21.76 112.284 21.696 112.636 21.568L112.812 21.504C113.068 21.3867 113.281 21.328 113.452 21.328C113.793 21.328 114.086 21.568 114.332 22.048C114.47 22.336 114.54 22.5813 114.54 22.784C114.54 23.7333 113.404 24.208 111.132 24.208C110.342 24.208 109.638 24.0747 109.02 23.808C108.412 23.5307 107.937 23.168 107.596 22.72C106.924 21.856 106.588 20.8907 106.588 19.824C106.588 18.48 107.02 17.408 107.884 16.608C108.758 15.7973 109.846 15.392 111.148 15.392C112.63 15.392 113.718 15.9147 114.411 16.96C114.774 17.5147 114.956 18.1227 114.956 18.784ZM111.58 19.248C111.985 19.248 112.188 19.0773 112.188 18.736C112.188 18.4907 112.092 18.2933 111.9 18.144C111.718 17.9947 111.452 17.92 111.1 17.92C110.758 17.92 110.417 18.064 110.076 18.352C109.734 18.6293 109.564 18.928 109.564 19.248H111.58ZM120.046 16.976C120.046 16.7307 120.052 16.5493 120.062 16.432C120.084 16.304 120.132 16.16 120.206 16C120.356 15.7227 120.772 15.584 121.454 15.584C121.966 15.584 122.329 15.6747 122.542 15.856C122.724 16.0053 122.82 16.2347 122.83 16.544C122.841 16.6507 122.846 16.8053 122.846 17.008V22.608C122.846 22.8533 122.836 23.04 122.814 23.168C122.804 23.2853 122.756 23.424 122.67 23.584C122.532 23.8613 122.121 24 121.438 24C120.766 24 120.356 23.856 120.206 23.568C120.132 23.408 120.084 23.2693 120.062 23.152C120.052 23.0347 120.046 22.848 120.046 22.592V16.976ZM122.67 14.016C122.596 14.1653 122.457 14.272 122.254 14.336C122.052 14.4 121.78 14.432 121.438 14.432C121.108 14.432 120.841 14.4 120.638 14.336C120.436 14.272 120.292 14.16 120.206 14C120.132 13.84 120.084 13.7013 120.062 13.584C120.052 13.456 120.046 13.2693 120.046 13.024C120.046 12.7787 120.052 12.5973 120.062 12.48C120.084 12.352 120.132 12.2133 120.206 12.064C120.356 11.776 120.772 11.632 121.454 11.632C122.126 11.632 122.532 11.776 122.67 12.064C122.756 12.224 122.804 12.368 122.814 12.496C122.836 12.6133 122.846 12.7947 122.846 13.04C122.846 13.2853 122.836 13.472 122.814 13.6C122.804 13.7173 122.756 13.856 122.67 14.016ZM128.812 15.568C129.879 15.568 130.764 15.9787 131.468 16.8C132.183 17.6107 132.54 18.6027 132.54 19.776V22.592C132.54 22.8373 132.53 23.024 132.508 23.152C132.498 23.2693 132.455 23.4027 132.38 23.552C132.231 23.84 131.815 23.984 131.132 23.984C130.375 23.984 129.938 23.7867 129.82 23.392C129.756 23.2107 129.724 22.9387 129.724 22.576V19.76C129.724 19.3227 129.596 18.9813 129.34 18.736C129.095 18.4907 128.759 18.368 128.332 18.368C127.916 18.368 127.575 18.496 127.308 18.752C127.052 19.008 126.924 19.344 126.924 19.76V22.592C126.924 22.8373 126.914 23.024 126.892 23.152C126.882 23.2693 126.834 23.4027 126.748 23.552C126.61 23.84 126.199 23.984 125.516 23.984C124.844 23.984 124.434 23.84 124.284 23.552C124.21 23.392 124.162 23.2533 124.14 23.136C124.13 23.008 124.124 22.8213 124.124 22.576V16.912C124.124 16.6773 124.13 16.5013 124.14 16.384C124.162 16.256 124.215 16.1173 124.3 15.968C124.45 15.7013 124.86 15.568 125.532 15.568C126.183 15.568 126.583 15.6907 126.732 15.936C126.839 16.1173 126.892 16.336 126.892 16.592C126.935 16.5173 127.031 16.4107 127.18 16.272C127.33 16.1333 127.474 16.0213 127.612 15.936C127.975 15.6907 128.375 15.568 128.812 15.568ZM136.468 19.792C136.468 20.24 136.617 20.592 136.916 20.848C137.214 21.0933 137.529 21.216 137.86 21.216C138.201 21.216 138.516 21.12 138.804 20.928C139.102 20.7253 139.342 20.624 139.524 20.624C139.844 20.624 140.233 20.9067 140.692 21.472C140.937 21.7813 141.06 22.0587 141.06 22.304C141.06 22.7093 140.766 23.088 140.18 23.44C139.572 23.8667 138.825 24.08 137.94 24.08C136.948 24.08 135.993 23.7227 135.076 23.008C134.638 22.6667 134.281 22.2133 134.004 21.648C133.726 21.072 133.588 20.4427 133.588 19.76C133.588 19.0667 133.726 18.4427 134.004 17.888C134.281 17.3227 134.638 16.8693 135.076 16.528C135.961 15.824 136.905 15.472 137.908 15.472C138.313 15.472 138.708 15.5307 139.092 15.648C139.476 15.7547 139.758 15.8613 139.94 15.968L140.196 16.128C140.388 16.256 140.537 16.3573 140.644 16.432C140.921 16.6453 141.06 16.8907 141.06 17.168C141.06 17.4347 140.948 17.7387 140.724 18.08C140.34 18.6667 139.972 18.96 139.62 18.96C139.417 18.96 139.129 18.8427 138.756 18.608C138.564 18.4267 138.286 18.336 137.924 18.336C137.572 18.336 137.241 18.464 136.932 18.72C136.622 18.976 136.468 19.3333 136.468 19.792ZM146.671 15.6C147.738 15.6 148.623 16.0053 149.327 16.816C150.042 17.6267 150.399 18.6187 150.399 19.792V22.608C150.399 22.8533 150.389 23.04 150.367 23.168C150.357 23.2853 150.309 23.424 150.223 23.584C150.085 23.8613 149.674 24 148.991 24C148.341 24 147.935 23.8613 147.775 23.584C147.69 23.424 147.637 23.28 147.615 23.152C147.605 23.024 147.599 22.832 147.599 22.576V19.776C147.599 19.3387 147.477 18.9973 147.231 18.752C146.986 18.5067 146.671 18.384 146.287 18.384C145.914 18.384 145.583 18.5013 145.295 18.736C145.007 18.96 144.842 19.216 144.799 19.504V22.608C144.799 22.8533 144.789 23.04 144.767 23.168C144.757 23.2853 144.709 23.424 144.623 23.584C144.485 23.8613 144.074 24 143.391 24C142.719 24 142.309 23.856 142.159 23.568C142.085 23.408 142.037 23.2693 142.015 23.152C142.005 23.0347 141.999 22.848 141.999 22.592V13.024C141.999 12.7787 142.005 12.5973 142.015 12.48C142.037 12.352 142.085 12.2133 142.159 12.064C142.309 11.776 142.725 11.632 143.407 11.632C144.079 11.632 144.485 11.776 144.623 12.064C144.709 12.224 144.757 12.368 144.767 12.496C144.789 12.6133 144.799 12.7947 144.799 13.04V16.576C145.333 15.9253 145.957 15.6 146.671 15.6ZM151.687 16.976C151.687 16.7307 151.692 16.5493 151.703 16.432C151.724 16.304 151.772 16.16 151.847 16C151.996 15.7227 152.412 15.584 153.095 15.584C153.607 15.584 153.97 15.6747 154.183 15.856C154.364 16.0053 154.46 16.2347 154.471 16.544C154.482 16.6507 154.487 16.8053 154.487 17.008V22.608C154.487 22.8533 154.476 23.04 154.455 23.168C154.444 23.2853 154.396 23.424 154.311 23.584C154.172 23.8613 153.762 24 153.079 24C152.407 24 151.996 23.856 151.847 23.568C151.772 23.408 151.724 23.2693 151.703 23.152C151.692 23.0347 151.687 22.848 151.687 22.592V16.976ZM154.311 14.016C154.236 14.1653 154.098 14.272 153.895 14.336C153.692 14.4 153.42 14.432 153.079 14.432C152.748 14.432 152.482 14.4 152.279 14.336C152.076 14.272 151.932 14.16 151.847 14C151.772 13.84 151.724 13.7013 151.703 13.584C151.692 13.456 151.687 13.2693 151.687 13.024C151.687 12.7787 151.692 12.5973 151.703 12.48C151.724 12.352 151.772 12.2133 151.847 12.064C151.996 11.776 152.412 11.632 153.095 11.632C153.767 11.632 154.172 11.776 154.311 12.064C154.396 12.224 154.444 12.368 154.455 12.496C154.476 12.6133 154.487 12.7947 154.487 13.04C154.487 13.2853 154.476 13.472 154.455 13.6C154.444 13.7173 154.396 13.856 154.311 14.016ZM161.493 15.664C161.696 15.728 161.861 15.84 161.989 16C162.128 16.1493 162.197 16.3947 162.197 16.736C162.197 17.0773 162.096 17.4507 161.893 17.856C161.69 18.2613 161.397 18.464 161.013 18.464C160.821 18.464 160.634 18.4213 160.453 18.336C160.282 18.2507 160.053 18.208 159.765 18.208C159.477 18.208 159.205 18.3093 158.949 18.512C158.704 18.7147 158.581 18.96 158.581 19.248V22.608C158.581 22.8533 158.57 23.04 158.549 23.168C158.538 23.2853 158.49 23.424 158.405 23.584C158.245 23.8613 157.829 24 157.157 24C156.645 24 156.277 23.9093 156.053 23.728C155.882 23.5787 155.786 23.3493 155.765 23.04C155.765 22.9333 155.765 22.7787 155.765 22.576V16.96C155.765 16.7147 155.77 16.5333 155.781 16.416C155.802 16.288 155.85 16.1493 155.925 16C156.074 15.712 156.49 15.568 157.173 15.568C157.813 15.568 158.213 15.6907 158.373 15.936C158.49 16.1067 158.549 16.2827 158.549 16.464C158.602 16.3893 158.677 16.2987 158.773 16.192C158.88 16.0853 159.098 15.9413 159.429 15.76C159.76 15.5787 160.048 15.488 160.293 15.488C160.549 15.488 160.762 15.504 160.933 15.536C161.104 15.5573 161.29 15.6 161.493 15.664ZM163.078 16.976C163.078 16.7307 163.083 16.5493 163.094 16.432C163.115 16.304 163.163 16.16 163.238 16C163.387 15.7227 163.803 15.584 164.486 15.584C164.998 15.584 165.36 15.6747 165.574 15.856C165.755 16.0053 165.851 16.2347 165.862 16.544C165.872 16.6507 165.878 16.8053 165.878 17.008V22.608C165.878 22.8533 165.867 23.04 165.846 23.168C165.835 23.2853 165.787 23.424 165.702 23.584C165.563 23.8613 165.152 24 164.47 24C163.798 24 163.387 23.856 163.238 23.568C163.163 23.408 163.115 23.2693 163.094 23.152C163.083 23.0347 163.078 22.848 163.078 22.592V16.976ZM165.702 14.016C165.627 14.1653 165.488 14.272 165.286 14.336C165.083 14.4 164.811 14.432 164.47 14.432C164.139 14.432 163.872 14.4 163.67 14.336C163.467 14.272 163.323 14.16 163.238 14C163.163 13.84 163.115 13.7013 163.094 13.584C163.083 13.456 163.078 13.2693 163.078 13.024C163.078 12.7787 163.083 12.5973 163.094 12.48C163.115 12.352 163.163 12.2133 163.238 12.064C163.387 11.776 163.803 11.632 164.486 11.632C165.158 11.632 165.563 11.776 165.702 12.064C165.787 12.224 165.835 12.368 165.846 12.496C165.867 12.6133 165.878 12.7947 165.878 13.04C165.878 13.2853 165.867 13.472 165.846 13.6C165.835 13.7173 165.787 13.856 165.702 14.016ZM172.628 16.464C172.692 15.8667 173.113 15.568 173.892 15.568C174.308 15.568 174.617 15.6 174.82 15.664C175.022 15.728 175.161 15.84 175.236 16C175.321 16.16 175.369 16.304 175.38 16.432C175.401 16.5493 175.412 16.7307 175.412 16.976V22.576C175.412 22.8213 175.401 23.008 175.38 23.136C175.369 23.2533 175.326 23.392 175.252 23.552C175.102 23.8293 174.734 23.968 174.148 23.968C173.572 23.968 173.182 23.8987 172.98 23.76C172.788 23.6107 172.676 23.3973 172.644 23.12C172.249 23.6853 171.588 23.968 170.66 23.968C169.742 23.968 168.889 23.5467 168.1 22.704C167.31 21.8613 166.916 20.8853 166.916 19.776C166.916 18.656 167.31 17.68 168.1 16.848C168.9 16.0053 169.774 15.584 170.724 15.584C171.086 15.584 171.417 15.648 171.716 15.776C172.014 15.904 172.222 16.0267 172.34 16.144C172.457 16.2507 172.553 16.3573 172.628 16.464ZM169.716 19.792C169.716 20.144 169.854 20.464 170.132 20.752C170.409 21.0293 170.745 21.168 171.14 21.168C171.534 21.168 171.86 21.024 172.116 20.736C172.382 20.448 172.516 20.1333 172.516 19.792C172.516 19.44 172.388 19.1147 172.132 18.816C171.886 18.5173 171.55 18.368 171.124 18.368C170.708 18.368 170.366 18.5173 170.1 18.816C169.844 19.1147 169.716 19.44 169.716 19.792ZM181.583 18.4L180.543 18.336V20.544C180.543 20.832 180.586 21.04 180.671 21.168C180.767 21.296 180.938 21.36 181.183 21.36C181.439 21.36 181.631 21.3707 181.759 21.392C181.898 21.4027 182.042 21.4507 182.191 21.536C182.436 21.6747 182.559 22.032 182.559 22.608C182.559 23.28 182.41 23.6907 182.111 23.84C181.951 23.9147 181.807 23.9627 181.679 23.984C181.562 23.9947 181.386 24 181.151 24C180.042 24 179.199 23.7493 178.623 23.248C178.047 22.7467 177.759 21.8987 177.759 20.704V18.336C177.556 18.368 177.338 18.384 177.103 18.384C176.868 18.384 176.671 18.2933 176.511 18.112C176.362 17.9307 176.287 17.6213 176.287 17.184C176.287 16.7467 176.314 16.432 176.367 16.24C176.42 16.0373 176.495 15.8933 176.591 15.808C176.762 15.6693 176.975 15.6 177.231 15.6L177.759 15.664V14.016C177.759 13.7707 177.764 13.5893 177.775 13.472C177.796 13.3547 177.85 13.2267 177.935 13.088C178.074 12.8213 178.484 12.688 179.167 12.688C179.892 12.688 180.324 12.8853 180.463 13.28C180.516 13.4507 180.543 13.7227 180.543 14.096V15.664C181.012 15.6213 181.364 15.6 181.599 15.6C181.844 15.6 182.026 15.6107 182.143 15.632C182.271 15.6427 182.415 15.6907 182.575 15.776C182.852 15.9147 182.991 16.3253 182.991 17.008C182.991 17.68 182.847 18.0907 182.559 18.24C182.399 18.3147 182.255 18.3627 182.127 18.384C182.01 18.3947 181.828 18.4 181.583 18.4Z" fill="#442450"/>
</svg>
