<svg width="1366" height="768" viewBox="0 0 1366 768" fill="none" xmlns="http://www.w3.org/2000/svg">
<rect x="282" y="314.486" width="75.5273" height="143.132" fill="#B7B5B5"/>
<rect x="374.436" y="313" width="27.6182" height="57.4511" fill="#B7B5B5"/>
<rect x="291.582" y="326.868" width="75.5273" height="143.132" fill="#C4C4C4"/>
<rect x="306.236" y="339.744" width="13.5273" height="10.4006" fill="#888383"/>
<rect x="340.618" y="339.744" width="13.5273" height="10.4006" fill="#888383"/>
<rect x="306.236" y="370.451" width="13.5273" height="10.4006" fill="#888383"/>
<rect x="340.618" y="370.451" width="13.5273" height="10.4006" fill="#888383"/>
<rect x="306.236" y="400.167" width="13.5273" height="10.4006" fill="#888383"/>
<rect x="340.618" y="400.167" width="13.5273" height="10.4006" fill="#888383"/>
<rect x="306.236" y="430.874" width="13.5273" height="10.4006" fill="#888383"/>
<rect x="340.618" y="430.874" width="13.5273" height="10.4006" fill="#888383"/>
<rect x="379.509" y="316.467" width="26.4909" height="58.9369" fill="#C4C4C4"/>
<rect x="384.582" y="319.934" width="3.94546" height="3.46688" fill="#888383"/>
<rect x="398.109" y="319.934" width="3.94546" height="3.46688" fill="#888383"/>
<rect x="384.582" y="329.344" width="3.94546" height="3.46688" fill="#888383"/>
<rect x="398.109" y="329.344" width="3.94546" height="3.46688" fill="#888383"/>
<rect x="384.582" y="338.259" width="3.94546" height="3.46688" fill="#888383"/>
<rect x="398.109" y="338.259" width="3.94546" height="3.46688" fill="#888383"/>
<rect x="384.582" y="347.669" width="3.94546" height="3.46688" fill="#888383"/>
<rect x="398.109" y="347.669" width="3.94546" height="3.46688" fill="#888383"/>
<rect x="384.582" y="355.593" width="3.94546" height="3.46688" fill="#888383"/>
<rect x="398.109" y="355.593" width="3.94546" height="3.46688" fill="#888383"/>
<rect x="384.582" y="365.003" width="3.94546" height="3.46688" fill="#888383"/>
<rect x="398.109" y="365.003" width="3.94546" height="3.46688" fill="#888383"/>
<rect x="31" y="37.0727" width="92.5818" height="199.673" fill="#B7B5B5"/>
<rect x="144.309" y="35" width="33.8545" height="80.1454" fill="#B7B5B5"/>
<rect x="42.7455" y="54.3455" width="92.5818" height="199.673" fill="#C4C4C4"/>
<rect x="60.7091" y="72.3091" width="16.5818" height="14.5091" fill="#888383"/>
<rect x="102.855" y="72.3091" width="16.5818" height="14.5091" fill="#888383"/>
<rect x="60.7091" y="115.145" width="16.5818" height="14.5091" fill="#888383"/>
<rect x="102.855" y="115.145" width="16.5818" height="14.5091" fill="#888383"/>
<rect x="60.7091" y="156.6" width="16.5818" height="14.5091" fill="#888383"/>
<rect x="102.855" y="156.6" width="16.5818" height="14.5091" fill="#888383"/>
<rect x="60.7091" y="199.436" width="16.5818" height="14.5091" fill="#888383"/>
<rect x="102.855" y="199.436" width="16.5818" height="14.5091" fill="#888383"/>
<rect x="150.527" y="39.8363" width="32.4727" height="82.2182" fill="#C4C4C4"/>
<rect x="156.745" y="44.6727" width="4.83636" height="4.83636" fill="#888383"/>
<rect x="173.327" y="44.6727" width="4.83636" height="4.83636" fill="#888383"/>
<rect x="156.745" y="57.8" width="4.83636" height="4.83636" fill="#888383"/>
<rect x="173.327" y="57.8" width="4.83636" height="4.83636" fill="#888383"/>
<rect x="156.745" y="70.2364" width="4.83636" height="4.83636" fill="#888383"/>
<rect x="173.327" y="70.2364" width="4.83636" height="4.83636" fill="#888383"/>
<rect x="156.745" y="83.3637" width="4.83636" height="4.83636" fill="#888383"/>
<rect x="173.327" y="83.3637" width="4.83636" height="4.83636" fill="#888383"/>
<rect x="156.745" y="94.4182" width="4.83636" height="4.83636" fill="#888383"/>
<rect x="173.327" y="94.4182" width="4.83636" height="4.83636" fill="#888383"/>
<rect x="156.745" y="107.545" width="4.83636" height="4.83636" fill="#888383"/>
<rect x="173.327" y="107.545" width="4.83636" height="4.83636" fill="#888383"/>
<rect x="150" y="579.344" width="65.7818" height="129.457" fill="#B7B5B5"/>
<rect x="230.509" y="578" width="24.0545" height="51.9621" fill="#B7B5B5"/>
<rect x="158.345" y="590.543" width="65.7818" height="129.457" fill="#C4C4C4"/>
<rect x="171.109" y="602.189" width="11.7818" height="9.40694" fill="#888383"/>
<rect x="201.055" y="602.189" width="11.7818" height="9.40694" fill="#888383"/>
<rect x="171.109" y="629.962" width="11.7818" height="9.40694" fill="#888383"/>
<rect x="201.055" y="629.962" width="11.7818" height="9.40694" fill="#888383"/>
<rect x="171.109" y="656.839" width="11.7818" height="9.40694" fill="#888383"/>
<rect x="201.055" y="656.839" width="11.7818" height="9.40694" fill="#888383"/>
<rect x="171.109" y="684.612" width="11.7818" height="9.40694" fill="#888383"/>
<rect x="201.055" y="684.612" width="11.7818" height="9.40694" fill="#888383"/>
<rect x="234.927" y="581.136" width="23.0727" height="53.306" fill="#C4C4C4"/>
<rect x="239.345" y="584.271" width="3.43636" height="3.13565" fill="#888383"/>
<rect x="251.127" y="584.271" width="3.43636" height="3.13565" fill="#888383"/>
<rect x="239.345" y="592.782" width="3.43636" height="3.13565" fill="#888383"/>
<rect x="251.127" y="592.782" width="3.43636" height="3.13565" fill="#888383"/>
<rect x="239.345" y="600.845" width="3.43636" height="3.13565" fill="#888383"/>
<rect x="251.127" y="600.845" width="3.43636" height="3.13565" fill="#888383"/>
<rect x="239.345" y="609.356" width="3.43636" height="3.13565" fill="#888383"/>
<rect x="251.127" y="609.356" width="3.43636" height="3.13565" fill="#888383"/>
<rect x="239.345" y="616.524" width="3.43636" height="3.13565" fill="#888383"/>
<rect x="251.127" y="616.524" width="3.43636" height="3.13565" fill="#888383"/>
<rect x="239.345" y="625.035" width="3.43636" height="3.13565" fill="#888383"/>
<rect x="251.127" y="625.035" width="3.43636" height="3.13565" fill="#888383"/>
<rect x="636" y="448.842" width="41.5471" height="81.1388" fill="#B7B5B5"/>
<rect x="686.849" y="448" width="15.1926" height="32.5678" fill="#B7B5B5"/>
<rect x="641.271" y="455.861" width="41.5471" height="81.1388" fill="#C4C4C4"/>
<rect x="649.332" y="463.161" width="7.44128" height="5.8959" fill="#888383"/>
<rect x="668.246" y="463.161" width="7.44128" height="5.8959" fill="#888383"/>
<rect x="649.332" y="480.568" width="7.44128" height="5.8959" fill="#888383"/>
<rect x="668.246" y="480.568" width="7.44128" height="5.8959" fill="#888383"/>
<rect x="649.332" y="497.413" width="7.44128" height="5.8959" fill="#888383"/>
<rect x="668.246" y="497.413" width="7.44128" height="5.8959" fill="#888383"/>
<rect x="649.332" y="514.82" width="7.44128" height="5.8959" fill="#888383"/>
<rect x="668.246" y="514.82" width="7.44128" height="5.8959" fill="#888383"/>
<rect x="689.639" y="449.965" width="14.5725" height="33.4101" fill="#C4C4C4"/>
<rect x="692.43" y="451.931" width="2.17037" height="1.9653" fill="#888383"/>
<rect x="699.871" y="451.931" width="2.17037" height="1.9653" fill="#888383"/>
<rect x="692.43" y="457.265" width="2.17037" height="1.9653" fill="#888383"/>
<rect x="699.871" y="457.265" width="2.17037" height="1.9653" fill="#888383"/>
<rect x="692.43" y="462.319" width="2.17037" height="1.9653" fill="#888383"/>
<rect x="699.871" y="462.319" width="2.17037" height="1.9653" fill="#888383"/>
<rect x="692.43" y="467.653" width="2.17037" height="1.9653" fill="#888383"/>
<rect x="699.871" y="467.653" width="2.17037" height="1.9653" fill="#888383"/>
<rect x="692.43" y="472.145" width="2.17037" height="1.9653" fill="#888383"/>
<rect x="699.871" y="472.145" width="2.17037" height="1.9653" fill="#888383"/>
<rect x="692.43" y="477.479" width="2.17037" height="1.9653" fill="#888383"/>
<rect x="699.871" y="477.479" width="2.17037" height="1.9653" fill="#888383"/>
<rect x="685" y="427.344" width="65.7818" height="129.457" fill="#B7B5B5"/>
<rect x="765.509" y="426" width="24.0545" height="51.9621" fill="#B7B5B5"/>
<rect x="693.345" y="438.543" width="65.7818" height="129.457" fill="#C4C4C4"/>
<rect x="706.109" y="450.189" width="11.7818" height="9.40694" fill="#888383"/>
<rect x="736.055" y="450.189" width="11.7818" height="9.40694" fill="#888383"/>
<rect x="706.109" y="477.962" width="11.7818" height="9.40694" fill="#888383"/>
<rect x="736.055" y="477.962" width="11.7818" height="9.40694" fill="#888383"/>
<rect x="706.109" y="504.839" width="11.7818" height="9.40694" fill="#888383"/>
<rect x="736.055" y="504.839" width="11.7818" height="9.40694" fill="#888383"/>
<rect x="706.109" y="532.612" width="11.7818" height="9.40694" fill="#888383"/>
<rect x="736.055" y="532.612" width="11.7818" height="9.40694" fill="#888383"/>
<rect x="769.927" y="429.136" width="23.0727" height="53.306" fill="#C4C4C4"/>
<rect x="774.345" y="432.271" width="3.43636" height="3.13565" fill="#888383"/>
<rect x="786.127" y="432.271" width="3.43636" height="3.13565" fill="#888383"/>
<rect x="774.345" y="440.782" width="3.43636" height="3.13565" fill="#888383"/>
<rect x="786.127" y="440.782" width="3.43636" height="3.13565" fill="#888383"/>
<rect x="774.345" y="448.845" width="3.43636" height="3.13565" fill="#888383"/>
<rect x="786.127" y="448.845" width="3.43636" height="3.13565" fill="#888383"/>
<rect x="774.345" y="457.356" width="3.43636" height="3.13565" fill="#888383"/>
<rect x="786.127" y="457.356" width="3.43636" height="3.13565" fill="#888383"/>
<rect x="774.345" y="464.524" width="3.43636" height="3.13565" fill="#888383"/>
<rect x="786.127" y="464.524" width="3.43636" height="3.13565" fill="#888383"/>
<rect x="774.345" y="473.035" width="3.43636" height="3.13565" fill="#888383"/>
<rect x="786.127" y="473.035" width="3.43636" height="3.13565" fill="#888383"/>
<rect x="549" y="155.842" width="41.5471" height="81.1388" fill="#B7B5B5"/>
<rect x="599.849" y="155" width="15.1926" height="32.5678" fill="#B7B5B5"/>
<rect x="554.271" y="162.861" width="41.5471" height="81.1388" fill="#C4C4C4"/>
<rect x="562.332" y="170.161" width="7.44128" height="5.8959" fill="#888383"/>
<rect x="581.246" y="170.161" width="7.44128" height="5.8959" fill="#888383"/>
<rect x="562.332" y="187.568" width="7.44128" height="5.8959" fill="#888383"/>
<rect x="581.246" y="187.568" width="7.44128" height="5.8959" fill="#888383"/>
<rect x="562.332" y="204.413" width="7.44128" height="5.8959" fill="#888383"/>
<rect x="581.246" y="204.413" width="7.44128" height="5.8959" fill="#888383"/>
<rect x="562.332" y="221.82" width="7.44128" height="5.8959" fill="#888383"/>
<rect x="581.246" y="221.82" width="7.44128" height="5.8959" fill="#888383"/>
<rect x="602.639" y="156.965" width="14.5725" height="33.4101" fill="#C4C4C4"/>
<rect x="605.43" y="158.931" width="2.17037" height="1.9653" fill="#888383"/>
<rect x="612.871" y="158.931" width="2.17037" height="1.9653" fill="#888383"/>
<rect x="605.43" y="164.265" width="2.17037" height="1.9653" fill="#888383"/>
<rect x="612.871" y="164.265" width="2.17037" height="1.9653" fill="#888383"/>
<rect x="605.43" y="169.319" width="2.17037" height="1.9653" fill="#888383"/>
<rect x="612.871" y="169.319" width="2.17037" height="1.9653" fill="#888383"/>
<rect x="605.43" y="174.653" width="2.17037" height="1.9653" fill="#888383"/>
<rect x="612.871" y="174.653" width="2.17037" height="1.9653" fill="#888383"/>
<rect x="605.43" y="179.145" width="2.17037" height="1.9653" fill="#888383"/>
<rect x="612.871" y="179.145" width="2.17037" height="1.9653" fill="#888383"/>
<rect x="605.43" y="184.479" width="2.17037" height="1.9653" fill="#888383"/>
<rect x="612.871" y="184.479" width="2.17037" height="1.9653" fill="#888383"/>
<rect x="598" y="134.344" width="65.7818" height="129.457" fill="#B7B5B5"/>
<rect x="678.509" y="133" width="24.0545" height="51.9621" fill="#B7B5B5"/>
<rect x="606.345" y="145.543" width="65.7818" height="129.457" fill="#C4C4C4"/>
<rect x="619.109" y="157.189" width="11.7818" height="9.40694" fill="#888383"/>
<rect x="649.055" y="157.189" width="11.7818" height="9.40694" fill="#888383"/>
<rect x="619.109" y="184.962" width="11.7818" height="9.40694" fill="#888383"/>
<rect x="649.055" y="184.962" width="11.7818" height="9.40694" fill="#888383"/>
<rect x="619.109" y="211.839" width="11.7818" height="9.40694" fill="#888383"/>
<rect x="649.055" y="211.839" width="11.7818" height="9.40694" fill="#888383"/>
<rect x="619.109" y="239.612" width="11.7818" height="9.40694" fill="#888383"/>
<rect x="649.055" y="239.612" width="11.7818" height="9.40694" fill="#888383"/>
<rect x="682.927" y="136.136" width="23.0727" height="53.306" fill="#C4C4C4"/>
<rect x="687.345" y="139.271" width="3.43636" height="3.13565" fill="#888383"/>
<rect x="699.127" y="139.271" width="3.43636" height="3.13565" fill="#888383"/>
<rect x="687.345" y="147.782" width="3.43636" height="3.13565" fill="#888383"/>
<rect x="699.127" y="147.782" width="3.43636" height="3.13565" fill="#888383"/>
<rect x="687.345" y="155.845" width="3.43636" height="3.13565" fill="#888383"/>
<rect x="699.127" y="155.845" width="3.43636" height="3.13565" fill="#888383"/>
<rect x="687.345" y="164.356" width="3.43636" height="3.13565" fill="#888383"/>
<rect x="699.127" y="164.356" width="3.43636" height="3.13565" fill="#888383"/>
<rect x="687.345" y="171.524" width="3.43636" height="3.13565" fill="#888383"/>
<rect x="699.127" y="171.524" width="3.43636" height="3.13565" fill="#888383"/>
<rect x="687.345" y="180.035" width="3.43636" height="3.13565" fill="#888383"/>
<rect x="699.127" y="180.035" width="3.43636" height="3.13565" fill="#888383"/>
<rect x="1178" y="59.8423" width="41.5471" height="81.1388" fill="#B7B5B5"/>
<rect x="1228.85" y="59" width="15.1926" height="32.5678" fill="#B7B5B5"/>
<rect x="1183.27" y="66.8612" width="41.5471" height="81.1388" fill="#C4C4C4"/>
<rect x="1191.33" y="74.1609" width="7.44128" height="5.8959" fill="#888383"/>
<rect x="1210.25" y="74.1609" width="7.44128" height="5.8959" fill="#888383"/>
<rect x="1191.33" y="91.5678" width="7.44128" height="5.8959" fill="#888383"/>
<rect x="1210.25" y="91.5678" width="7.44128" height="5.8959" fill="#888383"/>
<rect x="1191.33" y="108.413" width="7.44128" height="5.8959" fill="#888383"/>
<rect x="1210.25" y="108.413" width="7.44128" height="5.8959" fill="#888383"/>
<rect x="1191.33" y="125.82" width="7.44128" height="5.8959" fill="#888383"/>
<rect x="1210.25" y="125.82" width="7.44128" height="5.8959" fill="#888383"/>
<rect x="1231.64" y="60.9653" width="14.5725" height="33.4101" fill="#C4C4C4"/>
<rect x="1234.43" y="62.9306" width="2.17037" height="1.9653" fill="#888383"/>
<rect x="1241.87" y="62.9306" width="2.17037" height="1.9653" fill="#888383"/>
<rect x="1234.43" y="68.265" width="2.17037" height="1.9653" fill="#888383"/>
<rect x="1241.87" y="68.265" width="2.17037" height="1.9653" fill="#888383"/>
<rect x="1234.43" y="73.3186" width="2.17037" height="1.9653" fill="#888383"/>
<rect x="1241.87" y="73.3186" width="2.17037" height="1.9653" fill="#888383"/>
<rect x="1234.43" y="78.653" width="2.17037" height="1.9653" fill="#888383"/>
<rect x="1241.87" y="78.653" width="2.17037" height="1.9653" fill="#888383"/>
<rect x="1234.43" y="83.1451" width="2.17037" height="1.9653" fill="#888383"/>
<rect x="1241.87" y="83.1451" width="2.17037" height="1.9653" fill="#888383"/>
<rect x="1234.43" y="88.4795" width="2.17037" height="1.9653" fill="#888383"/>
<rect x="1241.87" y="88.4795" width="2.17037" height="1.9653" fill="#888383"/>
<rect x="1227" y="38.3439" width="65.7818" height="129.457" fill="#B7B5B5"/>
<rect x="1307.51" y="37" width="24.0545" height="51.9621" fill="#B7B5B5"/>
<rect x="1235.35" y="49.5426" width="65.7818" height="129.457" fill="#C4C4C4"/>
<rect x="1248.11" y="61.1893" width="11.7818" height="9.40694" fill="#888383"/>
<rect x="1278.05" y="61.1893" width="11.7818" height="9.40694" fill="#888383"/>
<rect x="1248.11" y="88.9621" width="11.7818" height="9.40694" fill="#888383"/>
<rect x="1278.05" y="88.9621" width="11.7818" height="9.40694" fill="#888383"/>
<rect x="1248.11" y="115.839" width="11.7818" height="9.40694" fill="#888383"/>
<rect x="1278.05" y="115.839" width="11.7818" height="9.40694" fill="#888383"/>
<rect x="1248.11" y="143.612" width="11.7818" height="9.40694" fill="#888383"/>
<rect x="1278.05" y="143.612" width="11.7818" height="9.40694" fill="#888383"/>
<rect x="1311.93" y="40.1357" width="23.0727" height="53.306" fill="#C4C4C4"/>
<rect x="1316.35" y="43.2713" width="3.43636" height="3.13565" fill="#888383"/>
<rect x="1328.13" y="43.2713" width="3.43636" height="3.13565" fill="#888383"/>
<rect x="1316.35" y="51.7823" width="3.43636" height="3.13565" fill="#888383"/>
<rect x="1328.13" y="51.7823" width="3.43636" height="3.13565" fill="#888383"/>
<rect x="1316.35" y="59.8454" width="3.43636" height="3.13565" fill="#888383"/>
<rect x="1328.13" y="59.8454" width="3.43636" height="3.13565" fill="#888383"/>
<rect x="1316.35" y="68.3565" width="3.43636" height="3.13565" fill="#888383"/>
<rect x="1328.13" y="68.3565" width="3.43636" height="3.13565" fill="#888383"/>
<rect x="1316.35" y="75.5236" width="3.43636" height="3.13565" fill="#888383"/>
<rect x="1328.13" y="75.5236" width="3.43636" height="3.13565" fill="#888383"/>
<rect x="1316.35" y="84.0347" width="3.43636" height="3.13565" fill="#888383"/>
<rect x="1328.13" y="84.0347" width="3.43636" height="3.13565" fill="#888383"/>
<rect x="1104" y="546.164" width="56.98" height="112.136" fill="#B7B5B5"/>
<rect x="1173.74" y="545" width="20.836" height="45.0095" fill="#B7B5B5"/>
<rect x="1111.23" y="555.864" width="56.98" height="112.136" fill="#C4C4C4"/>
<rect x="1122.28" y="565.953" width="10.2054" height="8.14826" fill="#888383"/>
<rect x="1148.22" y="565.953" width="10.2054" height="8.14826" fill="#888383"/>
<rect x="1122.28" y="590.009" width="10.2054" height="8.14826" fill="#888383"/>
<rect x="1148.22" y="590.009" width="10.2054" height="8.14826" fill="#888383"/>
<rect x="1122.28" y="613.29" width="10.2054" height="8.14826" fill="#888383"/>
<rect x="1148.22" y="613.29" width="10.2054" height="8.14826" fill="#888383"/>
<rect x="1122.28" y="637.347" width="10.2054" height="8.14826" fill="#888383"/>
<rect x="1148.22" y="637.347" width="10.2054" height="8.14826" fill="#888383"/>
<rect x="1177.56" y="547.716" width="19.9855" height="46.1735" fill="#C4C4C4"/>
<rect x="1181.39" y="550.432" width="2.97657" height="2.71609" fill="#888383"/>
<rect x="1191.6" y="550.432" width="2.97657" height="2.71609" fill="#888383"/>
<rect x="1181.39" y="557.804" width="2.97657" height="2.71609" fill="#888383"/>
<rect x="1191.6" y="557.804" width="2.97657" height="2.71609" fill="#888383"/>
<rect x="1181.39" y="564.789" width="2.97657" height="2.71609" fill="#888383"/>
<rect x="1191.6" y="564.789" width="2.97657" height="2.71609" fill="#888383"/>
<rect x="1181.39" y="572.161" width="2.97657" height="2.71609" fill="#888383"/>
<rect x="1191.6" y="572.161" width="2.97657" height="2.71609" fill="#888383"/>
<rect x="1181.39" y="578.369" width="2.97657" height="2.71609" fill="#888383"/>
<rect x="1191.6" y="578.369" width="2.97657" height="2.71609" fill="#888383"/>
<rect x="1181.39" y="585.741" width="2.97657" height="2.71609" fill="#888383"/>
<rect x="1191.6" y="585.741" width="2.97657" height="2.71609" fill="#888383"/>
<rect x="1009" y="144.767" width="37.1545" height="73.8454" fill="#B7B5B5"/>
<rect x="1054.47" y="144" width="13.5864" height="29.6404" fill="#B7B5B5"/>
<rect x="1013.71" y="151.155" width="37.1545" height="73.8454" fill="#C4C4C4"/>
<rect x="1020.92" y="157.798" width="6.65455" height="5.36593" fill="#888383"/>
<rect x="1037.84" y="157.798" width="6.65455" height="5.36593" fill="#888383"/>
<rect x="1020.92" y="173.64" width="6.65455" height="5.36593" fill="#888383"/>
<rect x="1037.84" y="173.64" width="6.65455" height="5.36593" fill="#888383"/>
<rect x="1020.92" y="188.972" width="6.65455" height="5.36593" fill="#888383"/>
<rect x="1037.84" y="188.972" width="6.65455" height="5.36593" fill="#888383"/>
<rect x="1020.92" y="204.814" width="6.65455" height="5.36593" fill="#888383"/>
<rect x="1037.84" y="204.814" width="6.65455" height="5.36593" fill="#888383"/>
<rect x="1056.97" y="145.789" width="13.0318" height="30.4069" fill="#C4C4C4"/>
<rect x="1059.46" y="147.577" width="1.94091" height="1.78864" fill="#888383"/>
<rect x="1066.12" y="147.577" width="1.94091" height="1.78864" fill="#888383"/>
<rect x="1059.46" y="152.432" width="1.94091" height="1.78864" fill="#888383"/>
<rect x="1066.12" y="152.432" width="1.94091" height="1.78864" fill="#888383"/>
<rect x="1059.46" y="157.032" width="1.94091" height="1.78864" fill="#888383"/>
<rect x="1066.12" y="157.032" width="1.94091" height="1.78864" fill="#888383"/>
<rect x="1059.46" y="161.886" width="1.94091" height="1.78864" fill="#888383"/>
<rect x="1066.12" y="161.886" width="1.94091" height="1.78864" fill="#888383"/>
<rect x="1059.46" y="165.975" width="1.94091" height="1.78864" fill="#888383"/>
<rect x="1066.12" y="165.975" width="1.94091" height="1.78864" fill="#888383"/>
<rect x="1059.46" y="170.83" width="1.94091" height="1.78864" fill="#888383"/>
<rect x="1066.12" y="170.83" width="1.94091" height="1.78864" fill="#888383"/>
<rect x="1056" y="196.823" width="42.6364" height="79.3155" fill="#B7B5B5"/>
<rect x="1108.18" y="196" width="15.5909" height="31.836" fill="#B7B5B5"/>
<rect x="1061.41" y="203.685" width="42.6364" height="79.3155" fill="#C4C4C4"/>
<rect x="1069.68" y="210.82" width="7.63636" height="5.76341" fill="#888383"/>
<rect x="1089.09" y="210.82" width="7.63636" height="5.76341" fill="#888383"/>
<rect x="1069.68" y="227.836" width="7.63636" height="5.76341" fill="#888383"/>
<rect x="1089.09" y="227.836" width="7.63636" height="5.76341" fill="#888383"/>
<rect x="1069.68" y="244.303" width="7.63636" height="5.76341" fill="#888383"/>
<rect x="1089.09" y="244.303" width="7.63636" height="5.76341" fill="#888383"/>
<rect x="1069.68" y="261.319" width="7.63636" height="5.76341" fill="#888383"/>
<rect x="1089.09" y="261.319" width="7.63636" height="5.76341" fill="#888383"/>
<rect x="1111.05" y="197.921" width="14.9545" height="32.6593" fill="#C4C4C4"/>
<rect x="1113.91" y="199.842" width="2.22727" height="1.92114" fill="#888383"/>
<rect x="1121.55" y="199.842" width="2.22727" height="1.92114" fill="#888383"/>
<rect x="1113.91" y="205.057" width="2.22727" height="1.92114" fill="#888383"/>
<rect x="1121.55" y="205.057" width="2.22727" height="1.92114" fill="#888383"/>
<rect x="1113.91" y="209.997" width="2.22727" height="1.92114" fill="#888383"/>
<rect x="1121.55" y="209.997" width="2.22727" height="1.92114" fill="#888383"/>
<rect x="1113.91" y="215.211" width="2.22727" height="1.92114" fill="#888383"/>
<rect x="1121.55" y="215.211" width="2.22727" height="1.92114" fill="#888383"/>
<rect x="1113.91" y="219.603" width="2.22727" height="1.92114" fill="#888383"/>
<rect x="1121.55" y="219.603" width="2.22727" height="1.92114" fill="#888383"/>
<rect x="1113.91" y="224.817" width="2.22727" height="1.92114" fill="#888383"/>
<rect x="1121.55" y="224.817" width="2.22727" height="1.92114" fill="#888383"/>
<rect x="855" y="252.221" width="60.1834" height="117.606" fill="#B7B5B5"/>
<rect x="928.657" y="251" width="22.0074" height="47.205" fill="#B7B5B5"/>
<rect x="862.635" y="262.394" width="60.1834" height="117.606" fill="#C4C4C4"/>
<rect x="874.312" y="272.975" width="10.7791" height="8.54574" fill="#888383"/>
<rect x="901.709" y="272.975" width="10.7791" height="8.54574" fill="#888383"/>
<rect x="874.312" y="298.205" width="10.7791" height="8.54574" fill="#888383"/>
<rect x="901.709" y="298.205" width="10.7791" height="8.54574" fill="#888383"/>
<rect x="874.312" y="322.621" width="10.7791" height="8.54574" fill="#888383"/>
<rect x="901.709" y="322.621" width="10.7791" height="8.54574" fill="#888383"/>
<rect x="874.312" y="347.852" width="10.7791" height="8.54574" fill="#888383"/>
<rect x="901.709" y="347.852" width="10.7791" height="8.54574" fill="#888383"/>
<rect x="932.699" y="253.849" width="21.1091" height="48.4259" fill="#C4C4C4"/>
<rect x="936.742" y="256.697" width="3.14391" height="2.84858" fill="#888383"/>
<rect x="947.521" y="256.697" width="3.14391" height="2.84858" fill="#888383"/>
<rect x="936.742" y="264.429" width="3.14391" height="2.84858" fill="#888383"/>
<rect x="947.521" y="264.429" width="3.14391" height="2.84858" fill="#888383"/>
<rect x="936.742" y="271.754" width="3.14391" height="2.84858" fill="#888383"/>
<rect x="947.521" y="271.754" width="3.14391" height="2.84858" fill="#888383"/>
<rect x="936.742" y="279.486" width="3.14391" height="2.84858" fill="#888383"/>
<rect x="947.521" y="279.486" width="3.14391" height="2.84858" fill="#888383"/>
<rect x="936.742" y="285.997" width="3.14391" height="2.84858" fill="#888383"/>
<rect x="947.521" y="285.997" width="3.14391" height="2.84858" fill="#888383"/>
<rect x="936.742" y="293.729" width="3.14391" height="2.84858" fill="#888383"/>
<rect x="947.521" y="293.729" width="3.14391" height="2.84858" fill="#888383"/>
<rect x="1181" y="365.89" width="43.8545" height="85.6972" fill="#B7B5B5"/>
<rect x="1234.67" y="365" width="16.0364" height="34.3975" fill="#B7B5B5"/>
<rect x="1186.56" y="373.303" width="43.8545" height="85.6972" fill="#C4C4C4"/>
<rect x="1195.07" y="381.013" width="7.85455" height="6.22713" fill="#888383"/>
<rect x="1215.04" y="381.013" width="7.85455" height="6.22713" fill="#888383"/>
<rect x="1195.07" y="399.397" width="7.85455" height="6.22713" fill="#888383"/>
<rect x="1215.04" y="399.397" width="7.85455" height="6.22713" fill="#888383"/>
<rect x="1195.07" y="417.189" width="7.85455" height="6.22713" fill="#888383"/>
<rect x="1215.04" y="417.189" width="7.85455" height="6.22713" fill="#888383"/>
<rect x="1195.07" y="435.574" width="7.85455" height="6.22713" fill="#888383"/>
<rect x="1215.04" y="435.574" width="7.85455" height="6.22713" fill="#888383"/>
<rect x="1237.62" y="367.076" width="15.3818" height="35.2871" fill="#C4C4C4"/>
<rect x="1240.56" y="369.151" width="2.29091" height="2.07571" fill="#888383"/>
<rect x="1248.42" y="369.151" width="2.29091" height="2.07571" fill="#888383"/>
<rect x="1240.56" y="374.785" width="2.29091" height="2.07571" fill="#888383"/>
<rect x="1248.42" y="374.785" width="2.29091" height="2.07571" fill="#888383"/>
<rect x="1240.56" y="380.123" width="2.29091" height="2.07571" fill="#888383"/>
<rect x="1248.42" y="380.123" width="2.29091" height="2.07571" fill="#888383"/>
<rect x="1240.56" y="385.757" width="2.29091" height="2.07571" fill="#888383"/>
<rect x="1248.42" y="385.757" width="2.29091" height="2.07571" fill="#888383"/>
<rect x="1240.56" y="390.502" width="2.29091" height="2.07571" fill="#888383"/>
<rect x="1248.42" y="390.502" width="2.29091" height="2.07571" fill="#888383"/>
<rect x="1240.56" y="396.136" width="2.29091" height="2.07571" fill="#888383"/>
<rect x="1248.42" y="396.136" width="2.29091" height="2.07571" fill="#888383"/>
</svg>
